<svg xmlns="http://www.w3.org/2000/svg" viewBox="0 0 81.48 106.82"><defs><style>.cls-1{fill:#f9b4bd;}.cls-2{fill:#f9f5ed;}.cls-3{fill:#31353a;}.cls-4{fill:#9ad2d8;}.cls-5{fill:#fc4b38;}.cls-6{fill:#ffd45c;}.cls-7{fill:#f297a6;}.cls-8{fill:#fff;}.cls-9{fill:#5badba;}.cls-10{fill:#cc1c0e;}.cls-11{fill:#512220;}.cls-12{fill:#e8e0d1;}</style></defs><g id="レイヤー_2" data-name="レイヤー 2"><g id="contents_base"><path class="cls-1" d="M.93,87.74a1.34,1.34,0,0,1,0-1.33l67.83-2s8.8,2.62,11.08,4.65c1.89,1.68,2.67,11.66-1,14.07-.51.34.1.28-.51.34-6.43.6-54.24,3.28-59.31,3S.38,100.92.18,100.78a1.68,1.68,0,0,1,0-1.5C.45,99,4,99.69,4,99.69l.85-10.26Z"/><path class="cls-2" d="M1.87,88.14s13.77,3.34,15.28,4.3c1,.63,2,4.23,2,7s-1.32,4.82-3.85,4.59-13.94-4.8-13.94-4.8,2.22-4.94,2.22-6.6S1.87,88.14,1.87,88.14Z"/><path class="cls-3" d="M80.47,79.4c-22.32-.64-60.66-.9-75.08-.06-2.72,1.93-2.21,7.16-.17,9,25.14.34,49.69.45,74.83,0A8.8,8.8,0,0,0,80.47,79.4Z"/><path class="cls-4" d="M75.11,66c-18.64-.92-50.39-.85-62.43.36-2.28,2.8-1.85,10.37-.15,13,21,.5,41.52.66,62.53,0A22.45,22.45,0,0,0,75.11,66Z"/><path class="cls-5" d="M80.62,56.11a1.17,1.17,0,0,0-.05-1.19s-45.27-3.15-50-2.79c-4.51.36-21,2.28-22.27,2.48-1.15.19-3.58,8-1.14,10.75A2.22,2.22,0,0,0,8.59,66c4.48.54,41.59,2.47,49.33,2.47,6.2,0,23.19-3.07,23.37-3.19a1.44,1.44,0,0,0,0-1.34c-.24-.25-3.41.36-3.41.36l-1.16-7.5Z"/><path class="cls-2" d="M79.94,56.2s-18.52,1.85-19.55,2.06-2.2,2.56-2.15,5.08,1.15,3.53,3.41,3.33S80.28,64,80.28,64s-2-2-2-3.44S79.94,56.2,79.94,56.2Z"/><path class="cls-6" d="M65.74,46.49c-14.63-.61-39.77-.85-49.22-.06-1.78,1.82-1.17,5.8-.11,8.48,16.48.32,32.58.43,49.06,0A11.52,11.52,0,0,0,65.74,46.49Z"/><path class="cls-7" d="M25.9,91.88c-.08-.16-.65-.33-.54-.09a17.48,17.48,0,0,1-.14,14.7c-.09.19.46.45.54.27A17.67,17.67,0,0,0,25.9,91.88Z"/><path class="cls-7" d="M29,91.66c-.09-.17-.66-.33-.54-.1a16.87,16.87,0,0,1,.29,14.36c-.09.19.46.45.55.27A17.1,17.1,0,0,0,29,91.66Z"/><path class="cls-7" d="M59.45,90q-18.78,1.2-37.61,1.29c-.34,0,.1.39.28.39q18.88-.11,37.73-1.3C60.09,90.35,59.63,90,59.45,90Z"/><path class="cls-7" d="M70.16,89.4c-.08-.16-.65-.32-.53-.09a16,16,0,0,1,.44,14c-.08.19.47.45.55.27A16.25,16.25,0,0,0,70.16,89.4Z"/><path class="cls-7" d="M73.58,89c-.09-.16-.66-.31-.54-.1A15.81,15.81,0,0,1,74,103.27c-.08.19.47.45.55.27A16,16,0,0,0,73.58,89Z"/><path class="cls-8" d="M14.46,85c-.66.43-1.86,1-2.14-.18a1.58,1.58,0,0,1,.15-1c.08-.19.73-1.12,1-.59.07.16.64.33.53.09a1.1,1.1,0,0,0-1.23-.58c-.71.12-1,1.12-1,1.72a1.51,1.51,0,0,0,1.07,1.33A2.53,2.53,0,0,0,15,85.34C15.13,85.22,14.63,84.9,14.46,85Z"/><path class="cls-8" d="M19.21,83a1.13,1.13,0,0,0-1.3-.19c-.14-.1-.36-.15-.41,0-.32.67-.68,1.58-.07,2.2a1.18,1.18,0,0,0,1.79,0A1.37,1.37,0,0,0,19.21,83Zm-.57,1.77a1,1,0,0,1-.4.24c-.52.2-.58-.56-.58-.83a1.91,1.91,0,0,1,.2-.76c.12,0,.25,0,.29,0,.29-.51.86-.27.94.25A1.42,1.42,0,0,1,18.64,84.76Z"/><path class="cls-8" d="M24.19,83.11l-1.9-.18a.34.34,0,0,0-.27,0c-.05,0-.14,0-.13.09s.05.29.07.44a17.42,17.42,0,0,0,.12,2.28c0,.18.55.42.56.18a10.15,10.15,0,0,0-.12-2.27c0-.11,0-.22,0-.32l2,.19C24.82,83.52,24.37,83.13,24.19,83.11Z"/><path class="cls-8" d="M23.78,84.27l-1.31.07c-.34,0,.11.39.3.38l1.31-.08C24.42,84.62,24,84.26,23.78,84.27Z"/><path class="cls-8" d="M29.19,83l-1.42-.13-.29,0c-.14-.06-.29-.07-.32,0a.29.29,0,0,0-.13.08c-.19.26,0,.68,0,1,.09.53.2,1.07.31,1.6.05.19.6.39.57.19a13.64,13.64,0,0,1-.22-2.46,2.29,2.29,0,0,1,.55,0l1.22.11C29.82,83.39,29.37,83,29.19,83Z"/><path class="cls-8" d="M29.28,84.56a.55.55,0,0,0-.39-.18l-1.19-.12c-.13,0-.16.1-.09.19a.52.52,0,0,0,.39.19l1.19.11C29.32,84.76,29.35,84.65,29.28,84.56Z"/><path class="cls-8" d="M33.94,85.24a1,1,0,0,1-1.55-.75.14.14,0,0,0,.09,0l1.66-.19c.07,0,.09-.07.06-.13C34,83.67,33.58,83.06,33,83s-1.06.4-1.14,1.05c-.18,1.36,1.56,2.14,2.62,1.53C34.61,85.47,34.12,85.14,33.94,85.24Zm-.58-1.7a1.73,1.73,0,0,1,.25.41l-1.21.14a1.28,1.28,0,0,1,.17-.42A.47.47,0,0,1,33.36,83.54Z"/><path class="cls-8" d="M45.65,84.13A2.09,2.09,0,0,0,44.9,84c.24-.23.45-.49.33-.65-.27-.39-.91-.51-1.34-.63s-.55.18-.49.58l.24,1.56c0,.22.06.43.1.65s.39.31.52.26c.8.16,2.28,0,2.22-1C46.46,84.44,45.94,84.22,45.65,84.13Zm-1-.81c.22.08-.2.32-.27.4l-.23.21v-.61a.22.22,0,0,0-.11-.17l0,0C44.23,83.17,44.42,83.25,44.61,83.32Zm1.1,1.79a1.64,1.64,0,0,1-1.45.38l-.06-.4-.06-.63a.63.63,0,0,0,.19,0,5.87,5.87,0,0,1,.72-.08C45.47,84.39,46.19,84.61,45.71,85.11Z"/><path class="cls-8" d="M50.28,83.66a.1.1,0,0,0,0,.09,1.27,1.27,0,0,0,.79,1.57A1.42,1.42,0,0,0,53,84.61C53.69,83,50.77,81.87,50.28,83.66Zm2.19.69a1.06,1.06,0,0,1-1,.73c-.94.06-.74-1-.45-1.52a.13.13,0,0,0,0-.06,1.1,1.1,0,0,1,.63-.4C52.41,82.92,52.63,83.83,52.47,84.35Z"/><path class="cls-8" d="M58.73,83.16a1.42,1.42,0,0,0-1.54.66,1,1,0,0,0-.33.81l0,.13a.18.18,0,0,0,.08.15,1.32,1.32,0,0,0,.64.74,1.51,1.51,0,0,0,2.1-.62A1.29,1.29,0,0,0,58.73,83.16Zm.43,1.48a1.3,1.3,0,0,1-1.1.85.6.6,0,0,1-.64-.67,2.1,2.1,0,0,1,.25-.66l0,0a.1.1,0,0,0,0-.08,1.61,1.61,0,0,1,.42-.4.74.74,0,0,1,.91,0A1,1,0,0,1,59.16,84.64Z"/><path class="cls-8" d="M62.82,83c0-.19-.54-.42-.56-.19a12.6,12.6,0,0,0,.06,2.88c0,.21.59.4.56.19A12.62,12.62,0,0,1,62.82,83Z"/><path class="cls-8" d="M64.85,82.56a23.69,23.69,0,0,1-2.78,1.34c-.2.08,0,.27.14.32q1.24.61,2.52,1.2c.33.15.46-.11.13-.27-.71-.32-1.41-.65-2.11-1a24.76,24.76,0,0,0,2.59-1.26C65.52,82.79,65,82.46,64.85,82.56Z"/><path class="cls-8" d="M76.31,82.68l0,0a2.07,2.07,0,0,0-2.86.93.59.59,0,0,0,.25.68.64.64,0,0,0,.57,0,2.36,2.36,0,0,0,.44-.32,2.61,2.61,0,0,1,1.17-.49,1.77,1.77,0,0,0,.4-.08.42.42,0,0,0,.28-.25A.46.46,0,0,0,76.31,82.68Z"/><path class="cls-8" d="M76.82,84.22a.47.47,0,0,0-.12-.4.72.72,0,0,0-.54-.22,1.67,1.67,0,0,0-.92.43,9.87,9.87,0,0,1-.83.54c-.21.12-.43.22-.29.47a.89.89,0,0,0,.66.35,2,2,0,0,0,1.9-.78A.87.87,0,0,0,76.82,84.22Z"/><path class="cls-9" d="M25.72,76.76q19.17.39,38.34-.79a8.69,8.69,0,0,0-.59-4.45l-37.41-.46A10,10,0,0,0,25.72,76.76Z"/><path class="cls-10" d="M27.46,62.36l15.42.28-.16-1.8-15.1-.6A4.75,4.75,0,0,0,27.46,62.36Z"/><path class="cls-10" d="M19.65,66.8A15.3,15.3,0,0,1,20,56.4c-1.72,0-3.44-.16-5.1-.31a11.49,11.49,0,0,0-1.13,10.35Z"/><path class="cls-10" d="M54.77,68.56a17.85,17.85,0,0,1,.32-11.26c-1.72,0-3.44-.17-5.1-.33a13.28,13.28,0,0,0-1.13,11.2Z"/><path class="cls-8" d="M24,55.11a10.76,10.76,0,0,1-.24-8.65c.08-.2-.47-.45-.54-.27A11,11,0,0,0,23.41,55C23.49,55.18,24.06,55.35,24,55.11Z"/><path class="cls-8" d="M60.15,46.47c-.09-.16-.66-.33-.54-.1a11.26,11.26,0,0,1,.8,8.06c-.06.21.5.45.55.27A11.5,11.5,0,0,0,60.15,46.47Z"/><path class="cls-8" d="M35.47,97.37a1.58,1.58,0,0,0-.13-.18.16.16,0,0,0,0,.14c0,.15,0,.3,0,.45,0,.52,0,1,0,1.56a7.06,7.06,0,0,0,.11.91s0,.09,0,.13a4,4,0,0,0,.11.52c0,.17-.12.23-.22.25a.5.5,0,0,1-.32,0,.59.59,0,0,1-.15-.28.42.42,0,0,0,0-.16,4.77,4.77,0,0,1-.28-1c0-.19-.07-.39-.11-.59s0-.42-.07-.62a5.83,5.83,0,0,1-.07-1,5.11,5.11,0,0,1,.1-1.23c0-.1,0-.21.07-.31a.32.32,0,0,1,.15-.24c.28-.07.46.11.63.28s.16.2.24.29a.64.64,0,0,1,.14.22.51.51,0,0,0,.12.23,1.28,1.28,0,0,1,.11.2.91.91,0,0,0,.17.34s0,0,0,.08a.2.2,0,0,0,0,.08,3,3,0,0,1,.28.49s0,.06,0,.08a1.62,1.62,0,0,0,.2.42.48.48,0,0,1,.09.26c.14.07.09.28.23.35a.43.43,0,0,0,.15-.2,3.11,3.11,0,0,1,.22-.4,5.75,5.75,0,0,0,.43-.86,5.45,5.45,0,0,1,.33-.58,8.18,8.18,0,0,0,.54-1s0-.1.05-.17a.44.44,0,0,1,.32-.08.73.73,0,0,1,.23.41c0,.22.07.46.11.68s0,.61.07.91a.71.71,0,0,1,0,.2.27.27,0,0,0,0,.2.23.23,0,0,1,0,.11,7.22,7.22,0,0,1,0,.93,8.58,8.58,0,0,0,0,1,.74.74,0,0,1,0,.21c0,.07,0,.12,0,.18a.3.3,0,0,1-.23.07.77.77,0,0,1-.08-.28,6.2,6.2,0,0,1-.06-.62,2,2,0,0,1,0-.49A1.32,1.32,0,0,0,39,99q0-.37,0-.75c0-.48-.07-1-.13-1.45a2.15,2.15,0,0,0,0-.43,1.4,1.4,0,0,0-.28.42c-.08.13-.15.26-.24.39a.91.91,0,0,0-.11.22,6.45,6.45,0,0,0-.29.59.29.29,0,0,1-.05.13,5.83,5.83,0,0,0-.51.87.7.7,0,0,1-.25.29l-.25,0c-.09-.08-.22-.14-.25-.27a3.83,3.83,0,0,1-.4-.62c-.15-.2-.27-.42-.41-.61a1.93,1.93,0,0,1-.29-.47Z"/><path class="cls-8" d="M42.12,97.53s.1-.06.13-.15a1.1,1.1,0,0,1-.26,0,.49.49,0,0,1-.32-.36.82.82,0,0,1,.08-.69,1.91,1.91,0,0,1,.59-.64,2.63,2.63,0,0,1,1-.42,1,1,0,0,1,.82.08.47.47,0,0,1,.15.38.18.18,0,0,1-.08.09c-.08,0-.09-.09-.17-.14a.74.74,0,0,0-.49,0,1.85,1.85,0,0,0-.45.11,2.5,2.5,0,0,0-.75.45,1.31,1.31,0,0,0-.23.24.8.8,0,0,0-.19.44.53.53,0,0,0,.36.09c.21,0,.43,0,.64,0a1.5,1.5,0,0,1,.37,0,.54.54,0,0,1,.07.29c-.06.13-.19.17-.3.23a2.19,2.19,0,0,0-.8.8,3.21,3.21,0,0,0-.24.45,4.1,4.1,0,0,0-.21.48,1.94,1.94,0,0,0,0,.59.81.81,0,0,0,.1.21.51.51,0,0,0,.54.09,2.86,2.86,0,0,0,.47-.22,4.12,4.12,0,0,0,.65-.44,3.39,3.39,0,0,0,.52-.55,1.39,1.39,0,0,1,.21-.21.21.21,0,0,1,.17,0,1.31,1.31,0,0,1-.33.88c-.1.1-.19.23-.28.33a.53.53,0,0,1-.15.11,2.73,2.73,0,0,1-.64.37l-.3.14a3.1,3.1,0,0,1-.4.13.54.54,0,0,1-.28,0,.73.73,0,0,1-.39-.31,3.09,3.09,0,0,1-.24-.44,1.32,1.32,0,0,1-.06-.65,2.82,2.82,0,0,1,.75-1.57Z"/><path class="cls-8" d="M47.23,96.83l-.13-.18a.18.18,0,0,0,0,.15c0,.15,0,.3,0,.45,0,.52,0,1,0,1.55a7.21,7.21,0,0,0,.11.92.57.57,0,0,1,0,.13c0,.18.12.44.12.52a.3.3,0,0,1-.22.25.44.44,0,0,1-.32,0,.59.59,0,0,1-.15-.28,1.42,1.42,0,0,0,0-.16,5.16,5.16,0,0,1-.27-1c0-.2-.07-.4-.11-.59s0-.42-.07-.62a5.88,5.88,0,0,1-.07-1,5,5,0,0,1,.1-1.22l.06-.31a.35.35,0,0,1,.16-.25.67.67,0,0,1,.63.28l.24.29a.68.68,0,0,1,.14.23.57.57,0,0,0,.12.23,1.28,1.28,0,0,1,.11.2.87.87,0,0,0,.17.33s0,0,0,.08a.25.25,0,0,0,0,.09,2.52,2.52,0,0,1,.28.48s0,.06,0,.09a1.73,1.73,0,0,0,.2.41.48.48,0,0,1,.09.27c.14.07.09.28.23.34a.4.4,0,0,0,.15-.19,3.11,3.11,0,0,1,.22-.4,5.86,5.86,0,0,0,.43-.87,6.65,6.65,0,0,1,.33-.58,9.79,9.79,0,0,0,.54-1s0-.1,0-.17a.44.44,0,0,1,.32-.07.7.7,0,0,1,.23.4c0,.23.07.46.11.69s0,.6.07.9a.68.68,0,0,1,0,.2.3.3,0,0,0,0,.21.38.38,0,0,1,0,.1,5.88,5.88,0,0,1,0,.94c0,.33,0,.67,0,1a.67.67,0,0,1,0,.2c0,.07,0,.12,0,.18a.27.27,0,0,1-.23.08.83.83,0,0,1-.08-.28q0-.32-.06-.63a1.93,1.93,0,0,1,0-.48,1.19,1.19,0,0,0-.05-.26c0-.25,0-.5,0-.76,0-.48-.07-1-.13-1.45a1.55,1.55,0,0,0,0-.42,1.71,1.71,0,0,0-.27.41c-.08.13-.15.27-.24.39a1.13,1.13,0,0,0-.11.22c-.09.21-.22.39-.29.6a.31.31,0,0,1,0,.12,6.38,6.38,0,0,0-.51.87.79.79,0,0,1-.25.3h-.25c-.09-.08-.22-.13-.25-.27a3.12,3.12,0,0,1-.4-.62c-.15-.2-.27-.41-.42-.61a2,2,0,0,1-.28-.47Z"/><path class="cls-8" d="M54.48,94.73a.93.93,0,0,0,.44-.11.38.38,0,0,0,.13,0,.77.77,0,0,1,.57.27,2.22,2.22,0,0,1,.36.39,1.22,1.22,0,0,1,.18.36,3.7,3.7,0,0,1,.18.8,3.42,3.42,0,0,1,0,.46c0,.47,0,.93-.05,1.4a1.57,1.57,0,0,1-.2.73.21.21,0,0,1,0,.06l-.28.36a1.11,1.11,0,0,1-.46.31,1.25,1.25,0,0,1-.6.13,1,1,0,0,1-.64-.23,4.73,4.73,0,0,1-.4-.37,2.33,2.33,0,0,1-.31-.5,2.63,2.63,0,0,1-.22-.65,4.94,4.94,0,0,1-.1-.53c0-.12,0-.24,0-.36a2,2,0,0,1,0-.35,1.22,1.22,0,0,1,.06-.42,2.25,2.25,0,0,0,.05-.22,1.48,1.48,0,0,1,.26-.57c.1-.14.19-.29.29-.44a1.46,1.46,0,0,1,.48-.41,1.91,1.91,0,0,0,.28-.15Zm-.34,1.39c0,.19-.1.37-.14.56s0,.16,0,.21a2.47,2.47,0,0,0,0,.47s0,.14,0,.18a1.16,1.16,0,0,0,0,.32,5.42,5.42,0,0,0,.06.58,1.83,1.83,0,0,0,.31.78,1.08,1.08,0,0,0,.32.32.71.71,0,0,0,.81,0,1.41,1.41,0,0,0,.37-.4.58.58,0,0,0,.13-.26c0-.28.12-.55.15-.83a3.21,3.21,0,0,0,0-.62c0-.16,0-.33,0-.5s0-.27,0-.41a3.18,3.18,0,0,0-.21-.86,1.14,1.14,0,0,0-.23-.38c-.07-.08-.12-.17-.19-.26a.63.63,0,0,0-.34-.08,1.07,1.07,0,0,0-.46.14.55.55,0,0,0-.2.17c-.06.11-.14.2-.2.32a2.68,2.68,0,0,1-.11.55Z"/><path class="cls-8" d="M60.46,97.64a.28.28,0,0,1-.16.06,1.8,1.8,0,0,1-.22.06s0,0,0,0a1.75,1.75,0,0,1,.52.28.64.64,0,0,0,.24.1,1.57,1.57,0,0,1,.54.29l.21.14c.1.07.12.13.07.21s-.13,0-.19,0l-.71-.36-.67-.33L59.75,98a1,1,0,0,0-.21-.07.41.41,0,0,0,0,.12c.05.3,0,.61.08.91a2.3,2.3,0,0,1,.06.83.37.37,0,0,1-.27.29.3.3,0,0,1-.28-.22,4.42,4.42,0,0,1-.1-.5s0-.09,0-.13c-.06-.48-.13-1-.18-1.45a6.51,6.51,0,0,1,0-.77s0-.09,0-.14,0-.27,0-.4a1.34,1.34,0,0,1,0-.2V95.13c-.28-.09-.45.17-.68.24v.06l.3.1a.31.31,0,0,1-.32.19.3.3,0,0,1-.27-.21.21.21,0,0,1,0-.26,2.1,2.1,0,0,1,.92-.73,3,3,0,0,1,.79-.18,1.55,1.55,0,0,0,.21,0,2,2,0,0,1,1.21.17,1.08,1.08,0,0,1,.61.72,3.09,3.09,0,0,1,.12.75,1,1,0,0,1-.21.59,3.43,3.43,0,0,1-.68.79l-.37.31Zm-.76,0a4.47,4.47,0,0,0,.47-.36,9.22,9.22,0,0,0,.69-.71,1.83,1.83,0,0,0,.47-1.09.26.26,0,0,0-.07-.19.8.8,0,0,0-.43-.26,2.28,2.28,0,0,0-1-.13,3.77,3.77,0,0,0-.43.1,2.73,2.73,0,0,1,.06.68c0,.29,0,.58,0,.88,0,.1,0,.2,0,.31s0,.51,0,.77c0,0,0,0,0,.06a.53.53,0,0,0,.19,0Z"/><path class="cls-8" d="M64.88,97.35s.05.1.13.11a5.69,5.69,0,0,0,.33-.52,8.49,8.49,0,0,0,.56-1.08,7.78,7.78,0,0,0,.43-1.17.5.5,0,0,0,.06-.32.24.24,0,0,0,.07-.16l.14,0a.39.39,0,0,1,.08.1.94.94,0,0,1-.07.4c0,.12-.06.24-.09.37s-.17.39-.25.59-.22.47-.34.7a6.94,6.94,0,0,1-.38.71c-.17.25-.31.51-.46.77a3.2,3.2,0,0,1,.09.75c0,.21,0,.42,0,.63a.19.19,0,0,1,0,.08,1.61,1.61,0,0,0,0,.31,1,1,0,0,1,0,.38.46.46,0,0,0-.12.12c-.09,0-.14,0-.21-.08a.4.4,0,0,1-.07-.3,1.36,1.36,0,0,0,0-.2,8.27,8.27,0,0,0-.09-.87,4.36,4.36,0,0,1,0-.51,1.22,1.22,0,0,0-.06-.42l0,0a1.55,1.55,0,0,1-.56-.55c-.19-.3-.35-.62-.52-.94a2.33,2.33,0,0,1-.2-.52,3.8,3.8,0,0,0-.15-.51,2.62,2.62,0,0,1-.15-.66,2.22,2.22,0,0,1,0-.63.38.38,0,0,1,.13-.12h.14l.23.19a.42.42,0,0,1,.12.25c0,.17.08.31.11.47s.08.27.11.41a.41.41,0,0,0,.05.19c.12.21.18.45.3.66s0,.19.08.27.08.19.13.28c.17.28.29.58.47.86Z"/><path class="cls-5" d="M30.89,21.83c.83,8.4,1.56,15.77,3.66,24a24.93,24.93,0,0,0,16.16.28A87.7,87.7,0,0,0,54.24,21.5C47,19.19,38.75,19.89,30.89,21.83Z"/><path class="cls-5" d="M52.79,24.9A3.28,3.28,0,0,0,55,26.2c1,.15,2-.19,3.07-.09a4.58,4.58,0,0,1,3.7,3.52,8.61,8.61,0,0,1-.64,5.3,15.69,15.69,0,0,1-4.74,6.3A31.13,31.13,0,0,1,50,44.82a29.52,29.52,0,0,0,1.19-6.39,5.1,5.1,0,0,0,4.41-.18,8.74,8.74,0,0,0,3.26-3.13A6.58,6.58,0,0,0,60,32.29a3.37,3.37,0,0,0-.93-2.81,3.63,3.63,0,0,0-3.38-.59,7.21,7.21,0,0,0-3.46,2.43A21.73,21.73,0,0,0,50,35Z"/><path class="cls-10" d="M52.89,21.87a28.64,28.64,0,0,1-2.86,1,27.5,27.5,0,0,1-15.18.3h0A24.11,24.11,0,0,1,32,22.25,48.34,48.34,0,0,1,52.89,21.87Z"/><path class="cls-11" d="M50,22.9a27.5,27.5,0,0,1-15.18.3A48.32,48.32,0,0,1,50,22.9Z"/><path class="cls-12" d="M41.22,19.48C39,17,38.71,13.26,39.41,10S41.59,3.66,42.47.43A64.33,64.33,0,0,0,45.16,14a5.53,5.53,0,0,1,.85-2.6,2.46,2.46,0,0,1,2.36-1.13A17.79,17.79,0,0,1,42.84,21Z"/><path class="cls-12" d="M46.35,8.87A44.61,44.61,0,0,0,46.78,0a5.55,5.55,0,0,1,1.74,3.74C48.59,5.14,47.28,7.82,46.35,8.87Z"/></g></g></svg>