<svg xmlns="http://www.w3.org/2000/svg" viewBox="0 0 265.12 186.18"><defs><style>.cls-1{fill:#f50;}.cls-2{fill:#fff;}.cls-3{fill:#e8e0d1;}.cls-4{fill:#ce1b0d;}</style></defs><g id="レイヤー_2" data-name="レイヤー 2"><g id="contents_base"><path class="cls-1" d="M261.63,4.72l3.49,2.61L260,172.73l-105.88,9.94s.7,2.6-16.58,3.4-18-3-18-3L2.19,172.12,0,4.72,4.39,1.79,134.53,21.44Z"/><path class="cls-2" d="M253.52,8.62c-1.27,51.29-3.3,158.51-3.3,158.51L137.5,178.35l-2.38.23-2.39-.27c-14.58-1.66-92.12-10.44-124.4-13.08-.7-54.62.48-105.48,3.46-160,3.13-.69,6.6-1.35,10.31-1.95C58.58-2.63,119.48-3,135.86,23.39c4.2-15,29-21.3,49.48-22.32C201.89.24,223,3.24,241.09,6.38,245.44,7.13,249.61,7.9,253.52,8.62Z"/><path class="cls-3" d="M253.52,8.62c-1.27,51.29-3.3,158.51-3.3,158.51l-115.1,11.45-2.39-.27,3.75-4.94c31.14-20.23,70.57-26.72,105.63-14.46.6-17.43-.93-136.09-1-152.53C245.44,7.13,249.61,7.9,253.52,8.62Z"/><path class="cls-3" d="M137.5,178.35l-2.38.23-2.39-.27c-14.58-1.66-92.12-10.44-124.4-13.08-.7-54.62-.19-160-.19-160s10.25-1.35,14-1.95l-6.24,157.3a183.6,183.6,0,0,1,120.39,14.91Z"/><path class="cls-4" d="M147.73,178.51a13.07,13.07,0,0,0-22.49-.17A34.33,34.33,0,0,0,147.73,178.51Z"/><path class="cls-3" d="M135.58,26.37c-.06-.18-.55-.38-.65-.15-1.12,2.46-.83,5.49-.9,8.16q-.14,4.27-.24,8.53c-.14,6-.23,12-.33,18Q133.16,79.45,133,98q-.12,18-.1,36c0,12.32-.48,24.89.45,37.19,0,.58,1.91,1,1.94.45.64-11.54,0-23.29-.05-34.86q-.08-18.57,0-37.16.09-18,.35-36,.14-9,.3-18c.06-3.2.09-6.39.13-9.59S136.61,29.41,135.58,26.37Z"/><path class="cls-3" d="M76.49,144.88v0a4.34,4.34,0,0,0-.17-.69c-.08-.21-.56-1-.86-.6a1.92,1.92,0,0,0-.23,1.29l0,1.2a1.91,1.91,0,0,0,.61,1.48c.44.32.62-.26.63-.6A12.51,12.51,0,0,0,76.49,144.88Z"/><path class="cls-3" d="M192.57,141.9c-.08-.2-.53-1-.83-.57a1.88,1.88,0,0,0-.31,1.31,1.48,1.48,0,0,1,0,.21,8.77,8.77,0,0,0,0,1.15,2.17,2.17,0,0,0,.68,1.67c.49.35.69-.3.7-.67A7.71,7.71,0,0,0,192.57,141.9Z"/></g></g></svg>