<svg xmlns="http://www.w3.org/2000/svg" viewBox="0 0 107.31 57.74"><defs><style>.cls-1{fill:#8ed5e5;}.cls-2{fill:#fff;}</style></defs><g id="レイヤー_2" data-name="レイヤー 2"><g id="contents_base"><path class="cls-1" d="M107.31,21.19h-.08c0-.09,0-.18,0-.27h-.08a1.15,1.15,0,0,1,0-.18h-.09c0-.21,0-.42,0-.64h-.09c0-.12,0-.24-.07-.36h-.08l-.06-.54h-.08V19a.11.11,0,0,0-.08,0c0-.1,0-.19,0-.28h-.08a1.09,1.09,0,0,1,0-.18l-.16-.1v-.18h-.08c0-.15,0-.3,0-.45h-.07v-.17l-.16-.1-.06-.46-.16-.09V16.8a2.54,2.54,0,0,1-.24-.2,1.09,1.09,0,0,1,0-.18h-.09v-.18l-.16-.09V16l-.15-.09a2.72,2.72,0,0,1,0-.28h-.09a1.09,1.09,0,0,0,0-.18h-.08a2.44,2.44,0,0,1,0-.27l-.16-.1c0-.12,0-.24-.07-.36l-.32-.29a1,1,0,0,0,0-.17l-.63-.57-.39-.56c-.08-.06-.15-.13-.24-.19a1.09,1.09,0,0,0,0-.18l-.16-.19H103c0-.06,0-.12-.07-.19l-.32-.1-.24-.37-.48-.11-.23-.37h-.16l-.24-.37h-.16l-.62-.84h-.16l-.16-.18H100V9.88h-.16L99,8.76h-.24V8.66h-.16v-.1h-.16l-.23-.37-.48-.11c0-.06-.05-.13-.08-.19L97.2,7.7V7.61H97V7.51h-.16a.28.28,0,0,1,0-.09l-.49-.2s0-.06,0-.09h-.25s0-.06,0-.09H96a.28.28,0,0,1,0-.09h-.16V6.83h-.16l-.24-.37H95.3V6.36h-.25V6.26h-.16V6.16h-.32a.25.25,0,0,1,0-.09h-.33V6h-.32V5.85h-.16l-.15-.27-.32-.1v-.1l-.57,0V5.26h-.16V5.17h-.24v-.1L92,5V4.87h-.24V4.77L91,4.65l-.15-.28c-.14-.08-.57.07-.57.07V4.35h-.16A1.54,1.54,0,0,0,90,4.16h-.16V4.07l-.32,0V4h-.24V3.87l-.48,0-.24-.37c-.17-.14-.43,0-.64-.12V3.27h-.16V3.17H87.6L87.52,3c-.33-.19-.67.08-1,0V2.86h-.24V2.76h-.16V2.66l-.65,0a.28.28,0,0,1,0-.09l-1.06,0V2.41h-.4V2.31h-.24V2.21h-.25a.31.31,0,0,0,0-.09l-.65,0V2L80.16,1.8V1.71h-.24a.38.38,0,0,0,0-.1h-.16V1.51h-.25V1.41l-.8,0V1.29l-.32,0V1.18h-.25s0,0,0-.08l-.33,0V1l-.65,0a.28.28,0,0,0,0-.09l-.57,0V.93h-.49a.38.38,0,0,1,0-.1,1.53,1.53,0,0,0-.58.07V.8h-.32V.7H75V.6l-1,0V.47L71.68.38a.2.2,0,0,1-.25.08V.37l-.64,0V.26h-.17s0-.06,0-.09L70,.22,68.27.16V.25l-.56,0s0,.06,0,.09c-.16,0-.16-.1-.16-.1a1.63,1.63,0,0,0-.73.06L66.09.17l-1.63,0V.11l-.32,0V0l-.41.08V.17l-.57,0V.23l-.73,0V.3l-.9,0V.35L61,.33V.42h-.24V.5L59.5.36a1.49,1.49,0,0,1-.81.06V.33h-.41V.41l-.41,0V.48L57.31.37a.28.28,0,0,0,0,.09L56.16.41s0,0,0-.08l-.33,0V.4h-.32V.48l-.8-.12a.28.28,0,0,0,0,.09h-.24V.53l-.57,0V.42a1.71,1.71,0,0,0-1.07.14L51,.49V.4l-.32,0a.28.28,0,0,1,0,.09l-.48,0v.1l-.33,0a.25.25,0,0,1,0,.09L48.6.58V.67h-.16a.28.28,0,0,0,0,.09h-.24a.28.28,0,0,0,0,.09l-1,0V.88l-.57,0V1L45.75.83s0,.06,0,.09L45.42,1s0,.05,0,.09h-.25v.08L44,1.12v.09H43.7v.09l-.65,0a.28.28,0,0,1,0,.09l-.89,0a.28.28,0,0,1,0,.09l-.48.07v.09h-.17v.09h-.33v.08h-.4a.28.28,0,0,1,0,.09l-.65,0v.08l-.65-.11v.09h-.33v.09l-.73,0V2H38s0,.11-.09.17h-.24v.09l-1.06,0v.09h-.17v.09l-.24,0v.1l-.57-.12c-.24.09-.49.17-.74.24v.1h-.16v.09l-.58,0v.09H34v.1l-.41,0V3h-.33v.08h-.41v.09l-.65,0v.1H32a.28.28,0,0,0,0,.09l-.49.07v.09h-.16a.31.31,0,0,1,0,.09H31.1v.09l-.57,0v.09l-1.07.23V4h-.25v.08H28.8v.09h-.16l-.09.18h-.16a.31.31,0,0,1,0,.09l-1.13,0v.09H27v.09h-.16v.09l-.5,0v.09l-.49.16v.09h-.17V5h-.16v.09L25,5.18a.28.28,0,0,1,0,.09h-.16v.09l-.5.16V5.6l-.49,0v.09h-.17a1.42,1.42,0,0,1-.08.18h-.16a.28.28,0,0,1,0,.09l-1.79.38a.28.28,0,0,0,0,.09l-.33.08v.09h-.33v.09h-.24a.28.28,0,0,0,0,.09H20.5v.09h-.25v.09L19.92,7v.09h-.24s0,.06,0,.09h-.16a.89.89,0,0,0-.08.17h-.17V7.4l-.49,0v.09h-.16s0,.06,0,.1l-.4.07c0,.06-.07.12-.09.17s-.49.06-.66.16a1.51,1.51,0,0,1-.09.18l-.89.14a.25.25,0,0,1,0,.09H16.3l-.09.18h-.16l-.17.17h-.16v.1h-.17v.09h-.16l-.09.17h-.24a.28.28,0,0,1,0,.09h-.16v.09h-.24a.28.28,0,0,0,0,.09l-.49.16s0,.06,0,.09H14s-.05.11-.09.17h-.16V9.8h-.16a.28.28,0,0,0,0,.09h-.24V10l-.33.08v.09l-.33.08-.09.17h-.16c-.12.14-.23.29-.34.43h-.16l-.09.18-.33.07-.17.27-.49.16-.09.18h-.16l-.34.44-.33.08v.09l-.25.08-.09.18H9.41c-.06.09-.12.18-.17.27L9,12.87a1.5,1.5,0,0,1-.09.18l-.49.17c-.54.57-1.07,1.16-1.6,1.74a1.09,1.09,0,0,0,0,.18l-.17.18H6.47L6,15.92,5.8,16c0,.12-.07.23-.1.35l-.84.79v.18l-.17.08c0,.12-.06.24-.1.36L4.26,18v.18l-.17.08v.18l-.34.26v.18l-.18.17v.18H3.49a1.09,1.09,0,0,0,0,.18l-.16.09c0,.06,0,.11,0,.17l-.25.18v.18l-.17.08c0,.12-.06.24-.1.36H2.72c0,.12-.07.24-.1.35H2.54c0,.09,0,.18,0,.27H2.45v.18l-.16.09c-.09.26-.19.53-.27.8H1.93l0,.64-.16.08a1.09,1.09,0,0,0,0,.18l-.16.08c0,.06,0,.12,0,.18H1.48l-.09.36H1.3c0,.24-.07.48-.1.72H1.12c0,.09,0,.18,0,.28H1A2.44,2.44,0,0,0,1,25H.94c0,.12,0,.24,0,.36H.84v.18H.76c0,.12,0,.24,0,.36L.5,26a1.09,1.09,0,0,0,0,.18H.41l0,.63H.3c0,.12,0,.24,0,.36H.21l0,.9H.1c0,.18-.07.36-.1.54H.08c0,.12,0,.24,0,.36H.15c0,.36-.08.73-.12,1.08H.11c0,.09,0,.18,0,.27H.18c0,.12.05.24.07.36H.34c0,.18,0,.36,0,.54l.17.1a1.09,1.09,0,0,0,0,.18H.63l.06.64.16.09c.05.19.1.37.14.55h.08l.15.54H1.3c0,.15.05.3.07.45l.31.28a1.09,1.09,0,0,1,0,.18l.17.1a1.09,1.09,0,0,0,0,.18c.13.13.26.26.4.38a1.09,1.09,0,0,0,0,.18l.23.19v.18l.39.38c0,.09.05.18.07.27l.16.1v.18l.54.56v.18l.24.19v.18l.55.57v.18l.23.18v.19l.48.2.15.27h.16c0,.06,0,.12.08.19h.16a1.42,1.42,0,0,0,.08.18h.16l.07.18h.16a1.42,1.42,0,0,1,.08.18h.24a1.54,1.54,0,0,1,.08.19l.32.1.08.18h.16l.15.27H7.4l.15.28h.16l.39.56.8.31c.1.15.21.3.31.46l1.2.5.08.18.48.2.15.28.41.1.15.28.4.11.23.37h.32v.09h.25v.09h.32v.09l.4,0,.08.18.4.11a1.34,1.34,0,0,1,.07.18l.33.1c0,.07,0,.12.07.19h.16v.09H15v.09h.16v.09l.48.11v.09h.16V46l.73.12.07.18.57.11c.05.1.57.32.63.41l.48.09V47h.16V47l.5.18v.09h.32v.09h.16v.09h.82a1.42,1.42,0,0,0,.08.18c.18.12.46.08.65.18,0,.06,0,.13.08.19h.16s3.27.78,3.56.79l0,.06,1.9.15-.33.3a1.09,1.09,0,0,1,0,.18h-.08v.18h-.08c0,.09,0,.18,0,.27h-.08c0,.06,0,.12,0,.18H26c0,.06,0,.12,0,.18l-.16.08c-.07.27-.13.54-.19.81l-.34.26-.09.35-.17.09-.09.36-.16.08c0,.18-.07.36-.1.54s-.23.17-.34.26v.18h-.08a5.51,5.51,0,0,1-1,1.68,2.35,2.35,0,0,1,0,.27h-.08c-.13.3-.05.42-.26.62,0,.33,0,.67,0,1L23,57a1.09,1.09,0,0,1,0,.18l.55.57H24v-.09h.17v-.09h.08a.28.28,0,0,0,0-.09v-.09l.33-.26a1.09,1.09,0,0,0,0-.18c.13,0,1.49-3.21,1.58-3.37l.16-.08a1.15,1.15,0,0,0,0-.18l.25-.18c0-.14.06-.29.1-.45h.07a2.44,2.44,0,0,0,0-.27l.17-.09.36-1,.17-.08.09-.36.17-.08v-.18l.16-.09c.11-.17,0-.41.11-.63l.17-.08a2.76,2.76,0,0,1,.08-.27h.09c0-.14.09-.28.14-.42a36.64,36.64,0,0,0,4.81.2c.47,0,.94.09.94.09a4.86,4.86,0,0,0,1.57.05v-.09l.57,0v-.09l.81,0v-.1h.25v-.09l1,0a.28.28,0,0,1,0-.09l.73-.06v.09l.4,0v.08c.22,0,.43,0,.65-.06v.09a5.09,5.09,0,0,0,1.79,0,.22.22,0,0,1,.24.1c.2.05.25-.08.25-.08l.4,0v.08c.16,0,.17-.08.17-.08a3.85,3.85,0,0,1,1.62.16l1.95,0a1.16,1.16,0,0,1,.81-.15v.09l.41-.07v-.09l.74,0V49.2l.81,0s0-.06,0-.09l.4-.08v.09l.41,0a.28.28,0,0,1,0,.09l1.06-.05v.09a7.62,7.62,0,0,0,2.19,0l1.06,0v-.09h.25v-.09l.49,0L55.4,49h.17v-.09l1.37.23.18-.26,1.05,0c.12,0,0,.09.08.09v-.09l.65-.06a.25.25,0,0,1,0-.09l.49,0a1,1,0,0,1,.09-.18l.8.12v-.09l1,0v-.09h.25l.89,0v-.09h.16a1.42,1.42,0,0,0,.08-.18l1.06,0v-.09l.82,0v-.09l.89,0a.25.25,0,0,1,0-.09l.8,0v-.1h.17v-.09h.24a.28.28,0,0,1,0-.09l.73,0v-.09l1.29.05a.28.28,0,0,0,0-.09H69a.28.28,0,0,1,0-.09l1,0v-.09h.24a.28.28,0,0,1,0-.09l.57,0v-.09h.24s0-.06,0-.09l1.13.05V47.5h.33v-.08l.57,0a.28.28,0,0,1,0-.09l.48,0v-.1l.5,0V47.2l1.13,0s0-.06,0-.09h.32l.09-.17.73,0v-.09l.57-.07a.28.28,0,0,1,0-.09h.16a.28.28,0,0,0,0-.09l.81,0a1.42,1.42,0,0,1,.08-.18c.19-.1.34,0,.57-.07,0,0,0-.06,0-.08l.73,0v-.09l.49-.07v.09l.41,0v-.09h.33V46.1h.16V46h.49V46h.16s0-.06,0-.09h.32v-.09l.74-.06a.28.28,0,0,1,0-.09l.32-.08a.28.28,0,0,1,0-.09l.56,0v-.09l.33-.07a.28.28,0,0,1,0-.09H84v-.09h.57v-.08h.25V45l.49,0v-.09h.16l.09-.17.33-.08v-.09l1-.15s0-.06,0-.09h.24v-.09h.25v-.09L88.4,44v-.09h.17v-.09h.25V43.7H89a1.42,1.42,0,0,0,.08-.18l.42-.07v-.09h.17v-.09l.65-.07v-.09h.16l.18-.27.49-.16.09-.18.32-.07.09-.18.82-.24c0-.06,0-.12,0-.18A3.29,3.29,0,0,0,94,41.19s0-.12.08-.18h.16l.09-.18h.24a.25.25,0,0,0,0-.09h.16l.09-.18.33-.08a.75.75,0,0,0,.08-.18l.33-.07c.06-.09.12-.18.17-.27l.33-.07.09-.18.41-.08.51-.61.33-.08.33-.44h.17v-.09l.41-.07.34-.44.33-.08.34-.44h.16l.09-.18h.16c.08-.12.17-.24.26-.35l.24-.09q0-.12.09-.27c.09-.06.33-.06.41-.16s.06-.18.1-.27l.73-.15a.28.28,0,0,1,0-.09l.16-.09v-.17l.93-.87v-.18l.83-.69c0-.06,0-.12,0-.18l.67-.61a1.09,1.09,0,0,1,0-.18l.16-.08c0-.13,0-.24,0-.37h.09v-.18s.12-.08.17-.18h.17a3.73,3.73,0,0,1,.28-1.07l.24-.18c0-.12.06-.24.1-.35l.25-.18q0-.16.09-.36h.08c.13-.51.25-1,.38-1.52h.08v-.18l.17-.08c0-.15.07-.31.1-.45h.08a2.35,2.35,0,0,0,0-.27h.08a1.21,1.21,0,0,1,0-.18h.08c0-.24,0-.49,0-.73h.08c0-.12,0-.24,0-.36H107a2.44,2.44,0,0,1,0-.27h.08a2.44,2.44,0,0,1,0-.27h.08c0-.45,0-.9,0-1.35l-.12-1.09h.08a1.15,1.15,0,0,1,0-.18h.07l0-1.36h.08C107.3,21.55,107.3,21.37,107.31,21.19Z"/></g><g id="let"><path class="cls-2" d="M31.48,33.91a1.66,1.66,0,0,1-.88.06.79.79,0,0,1-.58-.59.94.94,0,0,1,.05-.74,1,1,0,0,1,.61-.48,5.67,5.67,0,0,0,2.7-1.81,5.62,5.62,0,0,0,1-3H30.56a.85.85,0,0,1-.63-.26.89.89,0,0,1-.26-.63.86.86,0,0,1,.26-.63.88.88,0,0,1,.63-.25h5.62v-2H33.11c-.26.42-.49.77-.71,1.07a1.2,1.2,0,0,1-.66.47,1,1,0,0,1-.81-.15.94.94,0,0,1-.41-.58.82.82,0,0,1,.14-.68,10.32,10.32,0,0,0,.74-1.14c.25-.45.49-.89.72-1.34s.39-.83.51-1.15a.91.91,0,0,1,.54-.53,1.11,1.11,0,0,1,.74,0,.86.86,0,0,1,.55.5,1,1,0,0,1,0,.71A8.75,8.75,0,0,1,34,21.89h2.14V20.15a1,1,0,0,1,1-1,1,1,0,0,1,.71.28,1,1,0,0,1,.31.75v1.74h3.84a.82.82,0,0,1,.62.26.85.85,0,0,1,.26.62.89.89,0,0,1-.26.62.85.85,0,0,1-.62.26H38.23v2h5.26a.85.85,0,0,1,.88.88.88.88,0,0,1-.25.63.82.82,0,0,1-.63.26h-4V31a.88.88,0,0,0,.3.79,2.49,2.49,0,0,0,1.24.2,3,3,0,0,0,.83-.08.77.77,0,0,0,.45-.32,2.58,2.58,0,0,0,.3-.68.84.84,0,0,1,.49-.56,1,1,0,0,1,.8,0,.92.92,0,0,1,.55.46,1.15,1.15,0,0,1,0,.76,2.68,2.68,0,0,1-1.06,1.76,4.41,4.41,0,0,1-2.44.54,7.78,7.78,0,0,1-2-.21,1.68,1.68,0,0,1-1-.75,3.24,3.24,0,0,1-.3-1.54v-4H36.29A8.12,8.12,0,0,1,35,31.45,6.76,6.76,0,0,1,31.48,33.91Z"/><path class="cls-2" d="M52.64,34.1a1,1,0,0,1-.67-.26.9.9,0,0,1-.27-.69v-2.4l-1.34.44-1.5.46L47.67,32a1.05,1.05,0,0,1-.77,0,.94.94,0,0,1-.45-.57.84.84,0,0,1,.07-.68.88.88,0,0,1,.6-.42l.36-.08.43-.12V21.47h-.63a.81.81,0,0,1-.59-.24.82.82,0,0,1-.24-.59.85.85,0,0,1,.24-.6.82.82,0,0,1,.59-.25H54a.82.82,0,0,1,.59.25.85.85,0,0,1,.24.6,1,1,0,0,1-.05.29h2.94a4.61,4.61,0,0,1,1.79.28,1.38,1.38,0,0,1,.81.91,3.63,3.63,0,0,1,0,1.68,15.5,15.5,0,0,1-1.77,5,13.51,13.51,0,0,0,2.62,2.54.92.92,0,0,1,.39.63.88.88,0,0,1-.21.73,1,1,0,0,1-.71.36,1,1,0,0,1-.75-.23c-.46-.38-.89-.78-1.29-1.18a13.22,13.22,0,0,1-1.12-1.27A15.19,15.19,0,0,1,55,32.93a1,1,0,0,1-.72.24.81.81,0,0,1-.66-.35l0,0v.36a.9.9,0,0,1-.27.69A1,1,0,0,1,52.64,34.1ZM49.8,23h1.9V21.47H49.8Zm0,3.15h1.9V24.62H49.8Zm0,3.43,1-.28.88-.23V27.78H49.8Zm3.79,2.13a.34.34,0,0,1,.08-.09l.09-.07a11.53,11.53,0,0,0,1.46-1.31,14.43,14.43,0,0,0,1.2-1.43A15.31,15.31,0,0,1,54.61,24a.8.8,0,0,1,.14-.68.88.88,0,0,1,.57-.33.86.86,0,0,1,.65.12.78.78,0,0,1,.35.57,17,17,0,0,0,.48,1.8,9.71,9.71,0,0,0,.68,1.62,12.11,12.11,0,0,0,1.1-3.47,1.06,1.06,0,0,0-.09-.77q-.16-.21-.81-.21H54.9a.84.84,0,0,1-.61-.25.85.85,0,0,1-.25-.61.73.73,0,0,1,.06-.32h-.51Z"/><path class="cls-2" d="M70.44,33.44a1,1,0,0,1-.32-.67.89.89,0,0,1,.27-.69A8.53,8.53,0,0,0,72.3,29,11.73,11.73,0,0,0,73,24.9a3.23,3.23,0,0,0-.4-1.81,1.39,1.39,0,0,0-1.19-.56,1.67,1.67,0,0,0-1.18.52,3.27,3.27,0,0,0-.82,1.54,7.69,7.69,0,0,0-.14,2.58.91.91,0,0,1-.2.66.83.83,0,0,1-.6.33A.92.92,0,0,1,67.8,28a1,1,0,0,1-.34-.59c-.07-.56-.12-1.17-.14-1.83s0-1.34,0-2,0-1.29.09-1.86.08-1,.12-1.42a.93.93,0,0,1,.36-.62.88.88,0,0,1,.68-.19.93.93,0,0,1,.64.33.87.87,0,0,1,.16.71c0,.19,0,.44-.08.73s-.07.59-.09.85a3.29,3.29,0,0,1,1-1,2.31,2.31,0,0,1,1.3-.42A3,3,0,0,1,74,21.72a5.19,5.19,0,0,1,.84,3.18,14.82,14.82,0,0,1-.34,3.21,12.53,12.53,0,0,1-1,2.91,9.37,9.37,0,0,1-1.71,2.39,1,1,0,0,1-.68.3A1,1,0,0,1,70.44,33.44Z"/></g></g></svg>