<svg xmlns="http://www.w3.org/2000/svg" viewBox="0 0 107.31 57.74"><defs><style>.cls-1{fill:#9cd094;}.cls-2{fill:#fff;}</style></defs><g id="レイヤー_2" data-name="レイヤー 2"><g id="contents_base"><path class="cls-1" d="M107.31,21.19h-.08c0-.09,0-.18,0-.27h-.08a1.15,1.15,0,0,1,0-.18h-.09c0-.21,0-.42,0-.64h-.09c0-.12,0-.24-.07-.36h-.08l-.06-.54h-.08V19a.11.11,0,0,0-.08,0c0-.1,0-.19,0-.28h-.08a1.09,1.09,0,0,1,0-.18l-.16-.1v-.18h-.08c0-.15,0-.3,0-.45h-.07v-.17l-.16-.1-.06-.46-.16-.09V16.8a2.54,2.54,0,0,1-.24-.2,1.09,1.09,0,0,1,0-.18h-.09v-.18l-.16-.09V16l-.15-.09a2.72,2.72,0,0,1,0-.28h-.09a1.09,1.09,0,0,0,0-.18h-.08a2.44,2.44,0,0,1,0-.27l-.16-.1c0-.12,0-.24-.07-.36l-.32-.29a1,1,0,0,0,0-.17l-.63-.57-.39-.56c-.08-.06-.15-.13-.24-.19a1.09,1.09,0,0,0,0-.18l-.16-.19H103c0-.06,0-.12-.07-.19l-.32-.1-.24-.37-.48-.11-.23-.37h-.16l-.24-.37h-.16l-.62-.84h-.16l-.16-.18H100V9.88h-.16L99,8.76h-.24V8.66h-.16v-.1h-.16l-.23-.37-.48-.11c0-.06-.05-.13-.08-.19L97.2,7.7V7.61H97V7.51h-.16a.28.28,0,0,1,0-.09l-.49-.2s0-.06,0-.09h-.25s0-.06,0-.09H96a.28.28,0,0,1,0-.09h-.16V6.83h-.16l-.24-.37H95.3V6.36h-.25V6.26h-.16V6.16h-.32a.25.25,0,0,1,0-.09h-.33V6h-.32V5.85h-.16l-.15-.27-.32-.1v-.1l-.57,0V5.26h-.16V5.17h-.24v-.1L92,5V4.87h-.24V4.77L91,4.65l-.15-.28c-.14-.08-.57.07-.57.07V4.35h-.16A1.54,1.54,0,0,0,90,4.16h-.16V4.07l-.32,0V4h-.24V3.87l-.48,0-.24-.37c-.17-.14-.43,0-.64-.12V3.27h-.16V3.17H87.6L87.52,3c-.33-.19-.67.08-1,0V2.86h-.24V2.76h-.16V2.66l-.65,0a.28.28,0,0,1,0-.09l-1.06,0V2.41h-.4V2.31h-.24V2.21h-.25a.31.31,0,0,0,0-.09l-.65,0V2L80.16,1.8V1.71h-.24a.38.38,0,0,0,0-.1h-.16V1.51h-.25V1.41l-.8,0V1.29l-.32,0V1.18h-.25s0,0,0-.08l-.33,0V1l-.65,0a.28.28,0,0,0,0-.09l-.57,0V.93h-.49a.38.38,0,0,1,0-.1,1.53,1.53,0,0,0-.58.07V.8h-.32V.7H75V.6l-1,0V.47L71.68.38a.2.2,0,0,1-.25.08V.37l-.64,0V.26h-.17s0-.06,0-.09L70,.22,68.27.16V.25l-.56,0s0,.06,0,.09c-.16,0-.16-.1-.16-.1a1.63,1.63,0,0,0-.73.06L66.09.17l-1.63,0V.11l-.32,0V0l-.41.08V.17l-.57,0V.23l-.73,0V.3l-.9,0V.35L61,.33V.42h-.24V.5L59.5.36a1.49,1.49,0,0,1-.81.06V.33h-.41V.41l-.41,0V.48L57.31.37a.28.28,0,0,0,0,.09L56.16.41s0,0,0-.08l-.33,0V.4h-.32V.48l-.8-.12a.28.28,0,0,0,0,.09h-.24V.53l-.57,0V.42a1.71,1.71,0,0,0-1.07.14L51,.49V.4l-.32,0a.28.28,0,0,1,0,.09l-.48,0v.1l-.33,0a.25.25,0,0,1,0,.09L48.6.58V.67h-.16a.28.28,0,0,0,0,.09h-.24a.28.28,0,0,0,0,.09l-1,0V.88l-.57,0V1L45.75.83s0,.06,0,.09L45.42,1s0,.05,0,.09h-.25v.08L44,1.12v.09H43.7v.09l-.65,0a.28.28,0,0,1,0,.09l-.89,0a.28.28,0,0,1,0,.09l-.48.07v.09h-.17v.09h-.33v.08h-.4a.28.28,0,0,1,0,.09l-.65,0v.08l-.65-.11v.09h-.33v.09l-.73,0V2H38s0,.11-.09.17h-.24v.09l-1.06,0v.09h-.17v.09l-.24,0v.1l-.57-.12c-.24.09-.49.17-.74.24v.1h-.16v.09l-.58,0v.09H34v.1l-.41,0V3h-.33v.08h-.41v.09l-.65,0v.1H32a.28.28,0,0,0,0,.09l-.49.07v.09h-.16a.31.31,0,0,1,0,.09H31.1v.09l-.57,0v.09l-1.07.23V4h-.25v.08H28.8v.09h-.16l-.09.18h-.16a.31.31,0,0,1,0,.09l-1.13,0v.09H27v.09h-.16v.09l-.5,0v.09l-.49.16v.09h-.17V5h-.16v.09L25,5.18a.28.28,0,0,1,0,.09h-.16v.09l-.5.16V5.6l-.49,0v.09h-.17a1.42,1.42,0,0,1-.08.18h-.16a.28.28,0,0,1,0,.09l-1.79.38a.28.28,0,0,0,0,.09l-.33.08v.09h-.33v.09h-.24a.28.28,0,0,0,0,.09H20.5v.09h-.25v.09L19.92,7v.09h-.24s0,.06,0,.09h-.16a.89.89,0,0,0-.08.17h-.17V7.4l-.49,0v.09h-.16s0,.06,0,.1l-.4.07c0,.06-.07.12-.09.17s-.49.06-.66.16a1.51,1.51,0,0,1-.09.18l-.89.14a.25.25,0,0,1,0,.09H16.3l-.09.18h-.16l-.17.17h-.16v.1h-.17v.09h-.16l-.09.17h-.24a.28.28,0,0,1,0,.09h-.16v.09h-.24a.28.28,0,0,0,0,.09l-.49.16s0,.06,0,.09H14s-.05.11-.09.17h-.16V9.8h-.16a.28.28,0,0,0,0,.09h-.24V10l-.33.08v.09l-.33.08-.09.17h-.16c-.12.14-.23.29-.34.43h-.16l-.09.18-.33.07-.17.27-.49.16-.09.18h-.16l-.34.44-.33.08v.09l-.25.08-.09.18H9.41c-.06.09-.12.18-.17.27L9,12.87a1.5,1.5,0,0,1-.09.18l-.49.17c-.54.57-1.07,1.16-1.6,1.74a1.09,1.09,0,0,0,0,.18l-.17.18H6.47L6,15.92,5.8,16c0,.12-.07.23-.1.35l-.84.79v.18l-.17.08c0,.12-.06.24-.1.36L4.26,18v.18l-.17.08v.18l-.34.26v.18l-.18.17v.18H3.49a1.09,1.09,0,0,0,0,.18l-.16.09c0,.06,0,.11,0,.17l-.25.18v.18l-.17.08c0,.12-.06.24-.1.36H2.72c0,.12-.07.24-.1.35H2.54c0,.09,0,.18,0,.27H2.45v.18l-.16.09c-.09.26-.19.53-.27.8H1.93l0,.64-.16.08a1.09,1.09,0,0,0,0,.18l-.16.08c0,.06,0,.12,0,.18H1.48l-.09.36H1.3c0,.24-.07.48-.1.72H1.12c0,.09,0,.18,0,.28H1A2.44,2.44,0,0,0,1,25H.94c0,.12,0,.24,0,.36H.84v.18H.76c0,.12,0,.24,0,.36L.5,26a1.09,1.09,0,0,0,0,.18H.41l0,.63H.3c0,.12,0,.24,0,.36H.21l0,.9H.1c0,.18-.07.36-.1.54H.08c0,.12,0,.24,0,.36H.15c0,.36-.08.73-.12,1.08H.11c0,.09,0,.18,0,.27H.18c0,.12.05.24.07.36H.34c0,.18,0,.36,0,.54l.17.1a1.09,1.09,0,0,0,0,.18H.63l.06.64.16.09c.05.19.1.37.14.55h.08l.15.54H1.3c0,.15.05.3.07.45l.31.28a1.09,1.09,0,0,1,0,.18l.17.1a1.09,1.09,0,0,0,0,.18c.13.13.26.26.4.38a1.09,1.09,0,0,0,0,.18l.23.19v.18l.39.38c0,.09.05.18.07.27l.16.1v.18l.54.56v.18l.24.19v.18l.55.57v.18l.23.18v.19l.48.2.15.27h.16c0,.06,0,.12.08.19h.16a1.42,1.42,0,0,0,.08.18h.16l.07.18h.16a1.42,1.42,0,0,1,.08.18h.24a1.54,1.54,0,0,1,.08.19l.32.1.08.18h.16l.15.27H7.4l.15.28h.16l.39.56.8.31c.1.15.21.3.31.46l1.2.5.08.18.48.2.15.28.41.1.15.28.4.11.23.37h.32v.09h.25v.09h.32v.09l.4,0,.08.18.4.11a1.34,1.34,0,0,1,.07.18l.33.1c0,.07,0,.12.07.19h.16v.09H15v.09h.16v.09l.48.11v.09h.16V46l.73.12.07.18.57.11c.05.1.57.32.63.41l.48.09V47h.16V47l.5.18v.09h.32v.09h.16v.09h.82a1.42,1.42,0,0,0,.08.18c.18.12.46.08.65.18,0,.06,0,.13.08.19h.16s3.27.78,3.56.79l0,.06,1.9.15-.33.3a1.09,1.09,0,0,1,0,.18h-.08v.18h-.08c0,.09,0,.18,0,.27h-.08c0,.06,0,.12,0,.18H26c0,.06,0,.12,0,.18l-.16.08c-.07.27-.13.54-.19.81l-.34.26-.09.35-.17.09-.09.36-.16.08c0,.18-.07.36-.1.54s-.23.17-.34.26v.18h-.08a5.51,5.51,0,0,1-1,1.68,2.35,2.35,0,0,1,0,.27h-.08c-.13.3-.05.42-.26.62,0,.33,0,.67,0,1L23,57a1.09,1.09,0,0,1,0,.18l.55.57H24v-.09h.17v-.09h.08a.28.28,0,0,0,0-.09v-.09l.33-.26a1.09,1.09,0,0,0,0-.18c.13,0,1.49-3.21,1.58-3.37l.16-.08a1.15,1.15,0,0,0,0-.18l.25-.18c0-.14.06-.29.1-.45h.07a2.44,2.44,0,0,0,0-.27l.17-.09.36-1,.17-.08.09-.36.17-.08v-.18l.16-.09c.11-.17,0-.41.11-.63l.17-.08a2.76,2.76,0,0,1,.08-.27h.09c0-.14.09-.28.14-.42a36.64,36.64,0,0,0,4.81.2c.47,0,.94.09.94.09a4.86,4.86,0,0,0,1.57.05v-.09l.57,0v-.09l.81,0v-.1h.25v-.09l1,0a.28.28,0,0,1,0-.09l.73-.06v.09l.4,0v.08c.22,0,.43,0,.65-.06v.09a5.09,5.09,0,0,0,1.79,0,.22.22,0,0,1,.24.1c.2.05.25-.08.25-.08l.4,0v.08c.16,0,.17-.08.17-.08a3.85,3.85,0,0,1,1.62.16l1.95,0a1.16,1.16,0,0,1,.81-.15v.09l.41-.07v-.09l.74,0V49.2l.81,0s0-.06,0-.09l.4-.08v.09l.41,0a.28.28,0,0,1,0,.09l1.06-.05v.09a7.62,7.62,0,0,0,2.19,0l1.06,0v-.09h.25v-.09l.49,0L55.4,49h.17v-.09l1.37.23.18-.26,1.05,0c.12,0,0,.09.08.09v-.09l.65-.06a.25.25,0,0,1,0-.09l.49,0a1,1,0,0,1,.09-.18l.8.12v-.09l1,0v-.09h.25l.89,0v-.09h.16a1.42,1.42,0,0,0,.08-.18l1.06,0v-.09l.82,0v-.09l.89,0a.25.25,0,0,1,0-.09l.8,0v-.1h.17v-.09h.24a.28.28,0,0,1,0-.09l.73,0v-.09l1.29.05a.28.28,0,0,0,0-.09H69a.28.28,0,0,1,0-.09l1,0v-.09h.24a.28.28,0,0,1,0-.09l.57,0v-.09h.24s0-.06,0-.09l1.13.05V47.5h.33v-.08l.57,0a.28.28,0,0,1,0-.09l.48,0v-.1l.5,0V47.2l1.13,0s0-.06,0-.09h.32l.09-.17.73,0v-.09l.57-.07a.28.28,0,0,1,0-.09h.16a.28.28,0,0,0,0-.09l.81,0a1.42,1.42,0,0,1,.08-.18c.19-.1.34,0,.57-.07,0,0,0-.06,0-.08l.73,0v-.09l.49-.07v.09l.41,0v-.09h.33V46.1h.16V46h.49V46h.16s0-.06,0-.09h.32v-.09l.74-.06a.28.28,0,0,1,0-.09l.32-.08a.28.28,0,0,1,0-.09l.56,0v-.09l.33-.07a.28.28,0,0,1,0-.09H84v-.09h.57v-.08h.25V45l.49,0v-.09h.16l.09-.17.33-.08v-.09l1-.15s0-.06,0-.09h.24v-.09h.25v-.09L88.4,44v-.09h.17v-.09h.25V43.7H89a1.42,1.42,0,0,0,.08-.18l.42-.07v-.09h.17v-.09l.65-.07v-.09h.16l.18-.27.49-.16.09-.18.32-.07.09-.18.82-.24c0-.06,0-.12,0-.18A3.29,3.29,0,0,0,94,41.19s0-.12.08-.18h.16l.09-.18h.24a.25.25,0,0,0,0-.09h.16l.09-.18.33-.08a.75.75,0,0,0,.08-.18l.33-.07c.06-.09.12-.18.17-.27l.33-.07.09-.18.41-.08.51-.61.33-.08.33-.44h.17v-.09l.41-.07.34-.44.33-.08.34-.44h.16l.09-.18h.16c.08-.12.17-.24.26-.35l.24-.09q0-.12.09-.27c.09-.06.33-.06.41-.16s.06-.18.1-.27l.73-.15a.28.28,0,0,1,0-.09l.16-.09v-.17l.93-.87v-.18l.83-.69c0-.06,0-.12,0-.18l.67-.61a1.09,1.09,0,0,1,0-.18l.16-.08c0-.13,0-.24,0-.37h.09v-.18s.12-.08.17-.18h.17a3.73,3.73,0,0,1,.28-1.07l.24-.18c0-.12.06-.24.1-.35l.25-.18q0-.16.09-.36h.08c.13-.51.25-1,.38-1.52h.08v-.18l.17-.08c0-.15.07-.31.1-.45h.08a2.35,2.35,0,0,0,0-.27h.08a1.21,1.21,0,0,1,0-.18h.08c0-.24,0-.49,0-.73h.08c0-.12,0-.24,0-.36H107a2.44,2.44,0,0,1,0-.27h.08a2.44,2.44,0,0,1,0-.27h.08c0-.45,0-.9,0-1.35l-.12-1.09h.08a1.15,1.15,0,0,1,0-.18h.07l0-1.36h.08C107.3,21.55,107.3,21.37,107.31,21.19Z"/></g><g id="let"><path class="cls-2" d="M13.33,23.68a.75.75,0,0,1-.52-1.27.74.74,0,0,1,.52-.22h5.3a.73.73,0,0,1,.52.22.75.75,0,0,1,0,1.06.72.72,0,0,1-.52.21Zm.8-2.24a.7.7,0,0,1-.53-.23.79.79,0,0,1-.22-.54.77.77,0,0,1,.22-.54.73.73,0,0,1,.53-.22h3.78a.73.73,0,0,1,.54.22.76.76,0,0,1,.21.54.78.78,0,0,1-.21.54.7.7,0,0,1-.54.23Zm0,4.51a.7.7,0,0,1-.53-.23.77.77,0,0,1-.22-.53.78.78,0,0,1,.22-.55.73.73,0,0,1,.53-.22h3.78a.73.73,0,0,1,.54.22.77.77,0,0,1,.21.55.76.76,0,0,1-.21.53.7.7,0,0,1-.54.23Zm0,2.28A.71.71,0,0,1,13.6,28a.77.77,0,0,1-.22-.53.78.78,0,0,1,.22-.55.77.77,0,0,1,.53-.22h3.78a.74.74,0,0,1,.75.77.76.76,0,0,1-.21.53.71.71,0,0,1-.54.24ZM16,33.79a4.14,4.14,0,0,1-1.56-.23,1.43,1.43,0,0,1-.81-.77,4.41,4.41,0,0,1,0-2.87,1.43,1.43,0,0,1,.81-.75A4.38,4.38,0,0,1,16,29a4.38,4.38,0,0,1,1.56.22,1.42,1.42,0,0,1,.82.75,4.41,4.41,0,0,1,0,2.87,1.42,1.42,0,0,1-.82.77A4.14,4.14,0,0,1,16,33.79Zm0-1.5a1,1,0,0,0,.7-.18,1.06,1.06,0,0,0,.19-.75,1,1,0,0,0-.19-.73,1,1,0,0,0-.7-.18,1,1,0,0,0-.69.18,1,1,0,0,0-.19.73,1.06,1.06,0,0,0,.19.75A1,1,0,0,0,16,32.29Zm7.71,1.36a7.43,7.43,0,0,1-2.19-.26,1.79,1.79,0,0,1-1.13-.92,4.39,4.39,0,0,1-.33-1.89v-3.3a3.74,3.74,0,0,1,.29-1.61,1.7,1.7,0,0,1,.95-.83,5.28,5.28,0,0,1,1.77-.25h.46a1.38,1.38,0,0,0,.85-.19.93.93,0,0,0,.24-.75V22.48a.93.93,0,0,0-.24-.75,1.38,1.38,0,0,0-.85-.19H20.52a.89.89,0,0,1-.87-.87.87.87,0,0,1,.87-.86H23.6a5,5,0,0,1,1.77.25,1.64,1.64,0,0,1,.93.82,3.7,3.7,0,0,1,.28,1.6v1.17a3.75,3.75,0,0,1-.28,1.61,1.66,1.66,0,0,1-.93.83,5,5,0,0,1-1.77.25h-.49a1.36,1.36,0,0,0-.88.21,1.11,1.11,0,0,0-.24.83v3.2a1.49,1.49,0,0,0,.15.74.82.82,0,0,0,.54.37,4.41,4.41,0,0,0,1.1.1,4.48,4.48,0,0,0,1-.09.89.89,0,0,0,.53-.35,2.05,2.05,0,0,0,.28-.73.78.78,0,0,1,.45-.58,1,1,0,0,1,.78-.05.9.9,0,0,1,.69,1.13,2.73,2.73,0,0,1-1.12,1.95A4.9,4.9,0,0,1,23.75,33.65Z"/><path class="cls-2" d="M30.8,33.62a1.06,1.06,0,0,1-.71-.09A.76.76,0,0,1,29.7,33a.81.81,0,0,1,.14-.64.84.84,0,0,1,.6-.35l.9-.15,1-.19V27.7H30.64a.69.69,0,0,1-.51-.21.67.67,0,0,1-.22-.51.73.73,0,0,1,.73-.74h1.72V25h-.88a.72.72,0,0,1-.53-.23.74.74,0,0,1-.23-.54v-.09a.86.86,0,0,1-.63.26.84.84,0,0,1-.65-.28.87.87,0,0,1-.22-.61.74.74,0,0,1,.27-.56c.27-.24.55-.52.85-.84s.59-.63.87-1,.51-.62.71-.9a1.56,1.56,0,0,1,1.33-.7,2,2,0,0,1,1.33.65c.28.3.61.63,1,1s.71.68,1,.92a.76.76,0,0,1,.28.58.85.85,0,0,1-.86.89.88.88,0,0,1-.64-.22q-.34-.32-.84-.81t-.81-.87a.57.57,0,0,0-.4-.27c-.13,0-.26.1-.41.3s-.43.53-.7.85-.54.63-.82.93l.13,0h3.65a.69.69,0,0,1,.53.22.73.73,0,0,1,.22.53.77.77,0,0,1-.22.54.7.7,0,0,1-.53.23H34v1.2h1.48a.7.7,0,0,1,.52.21.76.76,0,0,1,.2.53.73.73,0,0,1-.2.51.7.7,0,0,1-.52.21H34v3.61l.61-.12.55-.12a.88.88,0,0,1,.65.09.71.71,0,0,1,.33.49q.18.75-.63,1c-.38.1-.86.2-1.43.33l-1.73.37Zm.84-2.4a.71.71,0,0,1-.59,0,.69.69,0,0,1-.36-.39c0-.13-.1-.29-.18-.5s-.16-.42-.23-.63-.14-.38-.19-.5a.59.59,0,0,1,0-.55.69.69,0,0,1,.44-.36.73.73,0,0,1,.58,0,.69.69,0,0,1,.37.41c0,.13.12.3.2.52s.16.42.23.62.13.36.16.46a.72.72,0,0,1,0,.56A.87.87,0,0,1,31.64,31.22Zm3-.43a.69.69,0,0,1-.37-.38.56.56,0,0,1,0-.52l.19-.43c.07-.18.15-.37.23-.55s.13-.34.17-.44a.77.77,0,0,1,.43-.47.78.78,0,0,1,1,.39.68.68,0,0,1,0,.59c0,.1-.11.25-.19.45s-.17.38-.26.56a3.76,3.76,0,0,1-.21.44.69.69,0,0,1-.43.37A.8.8,0,0,1,34.6,30.79ZM38.79,34a.86.86,0,0,1-.64-.24.93.93,0,0,1-.27-.61.8.8,0,0,1,.21-.58.81.81,0,0,1,.6-.28,1.08,1.08,0,0,0,.57-.16.57.57,0,0,0,.15-.47v-.77l-.68.35c-.26.13-.51.26-.76.37s-.46.22-.64.29a.85.85,0,0,1-.68,0,.78.78,0,0,1-.45-.5.84.84,0,0,1,0-.66.85.85,0,0,1,.48-.43c.19-.07.46-.17.79-.31l1-.43.89-.38v-3H36.84a.82.82,0,0,1-.79-.79.74.74,0,0,1,.24-.55.75.75,0,0,1,.55-.23H41v-.93H37.75a.74.74,0,0,1-.53-.23A.76.76,0,0,1,37,23a.69.69,0,0,1,.22-.53.73.73,0,0,1,.53-.22H41v-.1c0-.34,0-.56-.16-.65a1.16,1.16,0,0,0-.72-.15H37.6a.68.68,0,0,1-.52-.23.74.74,0,0,1-.23-.53.79.79,0,0,1,.23-.56.71.71,0,0,1,.52-.23h2.5a5.17,5.17,0,0,1,1.62.2,1.33,1.33,0,0,1,.8.7,3.54,3.54,0,0,1,.22,1.42v2.58h1a.79.79,0,0,1,.56.23.76.76,0,0,1,.23.55.75.75,0,0,1-.23.55.76.76,0,0,1-.56.24H41.11v1.36l.15.22a2.52,2.52,0,0,1,.15.24l.51-.46c.19-.16.36-.32.52-.47l.35-.33a.72.72,0,0,1,.58-.2.71.71,0,0,1,.55.28.75.75,0,0,1,0,1.1c-.15.14-.38.33-.68.58l-.84.68q.49.57,1,1.08c.35.35.68.65,1,.91a.74.74,0,0,1,.3.57.84.84,0,0,1-.23.61.88.88,0,0,1-.64.31.9.9,0,0,1-.66-.24,11.84,11.84,0,0,1-1-1.07c-.36-.41-.69-.83-1-1.27v1.76a2.11,2.11,0,0,1-.54,1.62A2.52,2.52,0,0,1,38.79,34Zm-.08-4.83a.76.76,0,0,1-.6.14.83.83,0,0,1-.54-.34,3.15,3.15,0,0,0-.22-.29c-.11-.14-.22-.27-.32-.41l-.24-.3a.74.74,0,0,1-.16-.59.69.69,0,0,1,.32-.5.93.93,0,0,1,.63-.18.73.73,0,0,1,.54.31c.05,0,.13.15.24.29l.34.43c.11.13.18.23.22.28a.75.75,0,0,1,.16.61A.93.93,0,0,1,38.71,29.19Z"/><path class="cls-2" d="M58.12,33.2A7.42,7.42,0,0,1,55,32.11a5.3,5.3,0,0,1-1.84-2,5.2,5.2,0,0,1-.6-2.43,5.82,5.82,0,0,1,.5-2.39,5.52,5.52,0,0,1,1.44-1.93l-2,.33-2.1.37-1.79.33a.91.91,0,0,1-.71-.18.94.94,0,0,1-.37-.62.91.91,0,0,1,.16-.72,1,1,0,0,1,.64-.37l1.31-.22L51.38,22l2-.34,2-.34L57.28,21l1.36-.24a1,1,0,0,1,.7.16.87.87,0,0,1,.39.6.92.92,0,0,1-.12.72.79.79,0,0,1-.58.39,5.45,5.45,0,0,0-3.4,1.9A5.41,5.41,0,0,0,54.75,26a4.32,4.32,0,0,0-.3,1.56,3.19,3.19,0,0,0,1.06,2.5,5.29,5.29,0,0,0,2.88,1.21,1,1,0,0,1,.62.38.91.91,0,0,1,.18.71.92.92,0,0,1-.37.64A.89.89,0,0,1,58.12,33.2Zm2-6.54a.65.65,0,0,1-.51.14.66.66,0,0,1-.47-.27c-.12-.15-.26-.34-.45-.57s-.34-.43-.49-.6a.63.63,0,0,1-.14-.42.59.59,0,0,1,.22-.43.6.6,0,0,1,.44-.16.66.66,0,0,1,.45.18c.16.14.35.32.56.54s.38.43.52.61a.72.72,0,0,1-.13,1Zm1.53-1.38a.61.61,0,0,1-.5.19.66.66,0,0,1-.49-.24c-.13-.15-.29-.33-.49-.54l-.53-.56a.62.62,0,0,1-.17-.42.6.6,0,0,1,.18-.44.66.66,0,0,1,.44-.19.77.77,0,0,1,.46.15,5.22,5.22,0,0,1,.59.49,5,5,0,0,1,.56.59.63.63,0,0,1,.18.48A.73.73,0,0,1,61.68,25.28Z"/><path class="cls-2" d="M72.39,34a9,9,0,0,1-3.3-.4,3.78,3.78,0,0,1-1.92-1.34,3.13,3.13,0,0,1-.51-2.06,2.77,2.77,0,0,1,.54-1.45,3,3,0,0,1,1.2-.93,4.82,4.82,0,0,1,1.66-.39,6.55,6.55,0,0,1,1.9.16c-.16-.24-.32-.49-.47-.75s-.31-.52-.46-.79c-.61.11-1.22.21-1.83.29s-1.21.16-1.77.22a.85.85,0,0,1-.68-.22.9.9,0,0,1-.33-.64.93.93,0,0,1,.22-.7.86.86,0,0,1,.65-.31l1.4-.16c.5-.06,1-.14,1.52-.22L70,23.79c-.08-.18-.14-.36-.21-.54l-1.25.2-1.15.15a1,1,0,0,1-.69-.21.89.89,0,0,1-.35-.62,1,1,0,0,1,.21-.7.87.87,0,0,1,.62-.34c.28,0,.59-.06.93-.11l1.06-.15c0-.18-.09-.35-.15-.52s-.1-.33-.14-.48a1,1,0,0,1,.1-.73.91.91,0,0,1,.59-.44.94.94,0,0,1,.73.1,1,1,0,0,1,.44.59l.15.57c.05.19.1.39.17.59l1-.2.87-.2a.9.9,0,0,1,.71.12.91.91,0,0,1,.41.59,1,1,0,0,1-.12.71.85.85,0,0,1-.58.41l-.8.17q-.43.11-.9.18l.2.54c.07.19.14.37.22.55l1.27-.27,1.13-.28a.92.92,0,0,1,.7.13.9.9,0,0,1,.43.58.95.95,0,0,1-.7,1.13c-.28.08-.59.15-.94.22l-1.08.22a15.37,15.37,0,0,0,.85,1.38,7.18,7.18,0,0,0,1,1.13,1,1,0,0,1,.28.57.94.94,0,0,1-.16.63.93.93,0,0,1-1.15.38A7.68,7.68,0,0,0,71,29.15a3.36,3.36,0,0,0-1.79.3,1.17,1.17,0,0,0-.68,1c-.06,1.19,1.2,1.76,3.8,1.68a.9.9,0,0,1,.68.25.88.88,0,0,1,.31.66.92.92,0,0,1-.26.69A.93.93,0,0,1,72.39,34Z"/><path class="cls-2" d="M88,33.38a3.71,3.71,0,0,1-2.3-.71,2.14,2.14,0,0,1-.81-1.84,2.32,2.32,0,0,1,.4-1.2,2.16,2.16,0,0,1,1-.77,2.89,2.89,0,0,1,1.43-.19,2.27,2.27,0,0,1,1.79.88,2.15,2.15,0,0,1,.3,1.73,2.21,2.21,0,0,0,1.28-2.14A1.9,1.9,0,0,0,90.7,28a2.23,2.23,0,0,0-1-.78A3.23,3.23,0,0,0,88.2,27a5.07,5.07,0,0,0-1.83.51,7.6,7.6,0,0,0-2,1.45,1,1,0,0,1-.72.26.87.87,0,0,1-.7-.33.92.92,0,0,1-.23-.69.75.75,0,0,1,.33-.62q1-.75,2-1.59c.66-.56,1.29-1.11,1.89-1.66s1.14-1,1.6-1.49c.28-.27.38-.5.29-.68s-.32-.25-.69-.2l-1.24.16-1.31.18a.89.89,0,0,1-.7-.18.9.9,0,0,1-.37-.64.87.87,0,0,1,.18-.69,1,1,0,0,1,.64-.38l.89-.09,1.1-.1,1-.08A3.11,3.11,0,0,1,90,20.4a1.8,1.8,0,0,1,.92,2.26A3,3,0,0,1,90,24c-.21.18-.48.41-.8.7l-1,.88a4.8,4.8,0,0,1,1.77,0,3.91,3.91,0,0,1,1.55.61,3.39,3.39,0,0,1,1.08,1.23,3.83,3.83,0,0,1,.4,1.78,4.3,4.3,0,0,1-.64,2.41A3.74,3.74,0,0,1,90.57,33,6.73,6.73,0,0,1,88,33.38ZM87.7,31.6h.22a.51.51,0,0,0,.17,0,1.22,1.22,0,0,0,.08-.88.68.68,0,0,0-.58-.41.9.9,0,0,0-.63.1.58.58,0,0,0-.28.49C86.67,31.32,87,31.56,87.7,31.6Z"/></g></g></svg>