<svg xmlns="http://www.w3.org/2000/svg" viewBox="0 0 17.38 15.73"><defs><style>.cls-1{fill:#f50;}</style></defs><g id="レイヤー_2" data-name="レイヤー 2"><g id="let"><path class="cls-1" d="M17.08,2.94A4.21,4.21,0,0,0,14.92.49,5.12,5.12,0,0,0,12.73,0a4.59,4.59,0,0,0-4,2.06l-.08.14-.06-.11A4.58,4.58,0,0,0,4.65,0,5.12,5.12,0,0,0,2.46.51,4.21,4.21,0,0,0,.3,3,5.39,5.39,0,0,0,.5,7c1.34,2.84,7.7,8.42,8,8.66a.31.31,0,0,0,.21.07h0a.38.38,0,0,0,.2-.1c.38-.33,6.63-5.84,8-8.66A5.36,5.36,0,0,0,17.08,2.94ZM16.3,6.7C15.14,9.15,9.77,14,8.68,15c-1.14-1-6.45-5.82-7.6-8.26A4.74,4.74,0,0,1,.91,3.17,3.59,3.59,0,0,1,2.73,1.09,4.48,4.48,0,0,1,4.65.67,3.91,3.91,0,0,1,8.06,2.41L8.4,3a.37.37,0,0,0,.27.16A.35.35,0,0,0,9,3,.13.13,0,0,1,9,3l.34-.58A3.94,3.94,0,0,1,12.73.64a4.49,4.49,0,0,1,1.92.43,3.59,3.59,0,0,1,1.82,2.08A4.74,4.74,0,0,1,16.3,6.7Z"/><path class="cls-1" d="M4.85,2A2.68,2.68,0,0,0,2.17,4.7,2.6,2.6,0,0,0,2.48,6a.3.3,0,0,0,.28.17.28.28,0,0,0,.15,0,.32.32,0,0,0,.14-.43,2,2,0,0,1-.24-1,2,2,0,0,1,2-2,.32.32,0,0,0,0-.64Z"/></g></g></svg>