<svg xmlns="http://www.w3.org/2000/svg" viewBox="0 0 15.75 16.41"><defs><style>.cls-1{fill:none;stroke:#f50;stroke-linecap:round;stroke-linejoin:round;stroke-width:0.75px;}</style></defs><g id="レイヤー_2" data-name="レイヤー 2"><g id="let"><path class="cls-1" d="M9.3,11.23l2.08-1.48c1.11-.78,2.24.95,1,1.79L9.69,13.47,6.27,15.72c-2.4,1.59-6.81-3.26-5.73-6L1.89,5c.2-.53.61-1.15,1.14-.92a1.93,1.93,0,0,1,.82,1.84c-.38,1.38-.54,2,.87,1l4.21-3c1-.69,2.36.76,1.14,1.66L7.48,7.49"/><path class="cls-1" d="M8.66,9.21l3.48-2.45c1-.69,0-2.55-1.22-1.68L7.53,7.45"/><path class="cls-1" d="M11.3,9.83,12.49,9c1-.69.06-2.48-1.19-1.64"/><path class="cls-1" d="M13.78,6.28c1.06-.84,2.28.84,1.12,1.73L12.74,9.68"/><path class="cls-1" d="M3.4,4.39,4.05,2c.18-.54.56-1.18,1.1-1a1.89,1.89,0,0,1,.9,1.79c-.3,1.4-.43,2,.93,1L11,.58c.92-.74,2.43.7,1.26,1.66"/><path class="cls-1" d="M13.23,4.15l1.15-.9c.93-.73-.17-2.6-1.31-1.62L11.18,3.25"/><path class="cls-1" d="M13.69,6.36l1.15-.9c.94-.73-.06-2.48-1.27-1.58"/></g></g></svg>