<?xml version="1.0" encoding="utf-8"?>
<!-- Generator: Adobe Illustrator 27.1.1, SVG Export Plug-In . SVG Version: 6.00 Build 0)  -->
<svg version="1.1" id="レイヤー_1" xmlns="http://www.w3.org/2000/svg" xmlns:xlink="http://www.w3.org/1999/xlink" x="0px"
	 y="0px" viewBox="0 0 24 24" style="enable-background:new 0 0 24 24;" xml:space="preserve">
<style type="text/css">
	.st0{fill:#FBC2A1;}
</style>
<path class="st0" d="M12,16.7c0.2,0,0.4-0.1,0.6-0.2c0.1-0.2,0.2-0.3,0.2-0.6s-0.1-0.4-0.2-0.6s-0.3-0.2-0.6-0.2
	c-0.2,0-0.4,0.1-0.6,0.2s-0.2,0.3-0.2,0.6s0.1,0.4,0.2,0.6C11.6,16.6,11.8,16.7,12,16.7z M11.2,13.2h1.5v-6h-1.5V13.2z M8.4,20.5
	l-4.9-4.9V8.5l4.9-5h7.1l5,4.9v7.1l-4.9,5H8.4z M9.1,19h5.8l4.1-4.1V9.1L14.9,5H9.1L5,9.1v5.8L9.1,19z"/>
</svg>
