<?xml version="1.0" encoding="utf-8"?>
<!-- Generator: Adobe Illustrator 25.4.1, SVG Export Plug-In . SVG Version: 6.00 Build 0)  -->
<svg version="1.1" id="レイヤー_1" xmlns="http://www.w3.org/2000/svg" xmlns:xlink="http://www.w3.org/1999/xlink" x="0px"
	 y="0px" viewBox="0 0 170.3 21.8" style="enable-background:new 0 0 170.3 21.8;" xml:space="preserve">
<style type="text/css">
	.st0{fill:#FBC2A1;}
</style>
<g>
	<rect x="63.1" y="12.9" class="st0" width="0.9" height="1.1"/>
	<path class="st0" d="M32.4,12.6v-2c-0.4,0.7-0.9,1.4-1.5,2H32.4z"/>
	<path class="st0" d="M33.6,12.6h1.5c-0.6-0.6-1.1-1.3-1.5-2V12.6z"/>
	<path class="st0" d="M58.4,8.6H57c-0.2,0.5-0.4,0.9-0.6,1.3H57c0.1-0.3,0.3-0.7,0.4-1l1.1,0.3V8.6z"/>
	<rect x="56" y="12.2" class="st0" width="0.8" height="0.5"/>
	<rect x="52.4" y="11" class="st0" width="0.7" height="2.3"/>
	<path class="st0" d="M55.2,9.4h-0.9V8.1h-1.4c-0.1,0.6-0.2,1.3-0.4,1.9h1.6v1.1c0.7-0.6,1.3-1.5,1.7-2.5h-0.7V9.4z"/>
	<rect x="56" y="13.5" class="st0" width="0.8" height="0.5"/>
	<path class="st0" d="M76.8,11.1l0.8,0c0,0.1-0.1,0.1-0.2,0.2v0.2h2.2v-0.4l0.8,0v0c-0.7-0.2-1.3-0.4-2-0.7
		C78,10.7,77.4,10.9,76.8,11.1z"/>
	<path class="st0" d="M68.2,10c0.2,0,0.4,0,0.5,0c0.1,0,0.2,0,0.2-0.1c0.1-0.1,0.2-0.7,0.3-2.1h-1.2c-0.1,0.3-0.1,0.6-0.2,0.9
		c0.3,0.2,0.6,0.3,0.9,0.5L68.2,10z"/>
	<path class="st0" d="M147.1,1.8H23.2c-5,0-9.1,4.1-9.1,9.1v0c0,5,4.1,9.1,9.1,9.1h123.8c5,0,9.1-4.1,9.1-9.1v0
		C156.1,5.9,152.1,1.8,147.1,1.8z M145.7,5.2c0.2,0.5,0.4,1.6,1.1,3.3c1.3,3.4-2.6,4.7-3.9,4.2c-0.8-0.3-1.3-1.3-1-3.3
		c0.3-2.2,1.6-4.1,3.5-4.5C145.6,5,145.7,5,145.7,5.2z M142.7,4.3c0.2-0.1,0.3-0.1,0.4,0c0.3,0.2,0.6,0.5,0.8,0.8
		c-0.4,0.3-0.8,0.5-1,0.8c-0.3-0.3-0.7-0.7-1-0.8C142.1,4.8,142.4,4.5,142.7,4.3z M139.1,8.6c0.7-1.8,0.9-2.8,1-3.3
		c0.1-0.2,0.3-0.3,0.4-0.3c0.8,0.2,1.5,0.7,2.1,1.3c-0.7,0.8-1.1,2-1.3,3.2c-0.1,1-0.1,1.8,0.1,2.5c0.2,0.3,0.3,0.6,0.5,0.8
		C140.6,12.6,138,11.6,139.1,8.6z M74,6.7c0.6,0.2,1.3,0.6,1.7,0.9L75,8.5c-0.3-0.3-1.1-0.8-1.6-1L74,6.7z M65.5,8.8l0.5-0.8
		c0.3,0.1,0.6,0.2,0.9,0.3C67,8.2,67,8,67,7.8h-1.4V6.9h3.8l0.2,0L70.3,7l0,0.3c-0.2,3.7-0.2,3.7-2.1,3.7c0-0.3-0.1-0.7-0.3-0.9
		l0.1,0c-0.2-0.1-0.4-0.2-0.6-0.3c-0.3,0.6-0.8,1.2-1.6,1.6c-0.1-0.2-0.4-0.6-0.7-0.8c0.6-0.3,1.1-0.8,1.3-1.2
		C66.2,9.1,65.9,8.9,65.5,8.8z M69,11.9l-0.7,0.7c-0.3-0.4-1-0.9-1.6-1.3l0.7-0.6C68,10.9,68.7,11.5,69,11.9z M62.3,6.9h2.7v0.8
		h-2.7V6.9z M36.6,13.9c-0.5-0.3-1.1-0.8-1.5-1.2v1.1h-1.5v1.6h-1.2v-1.6h-1.6v-1c-0.5,0.5-0.9,0.9-1.5,1.2
		c-0.2-0.3-0.6-0.7-0.8-0.9c1.3-0.7,2.5-2,3.2-3.5h-2.8V8.4h3.5V6.6l1.4,0.1c0,0.1-0.1,0.1-0.3,0.2v1.5h3.5v1.1h-2.9
		c0.7,1.4,1.9,2.7,3.3,3.4C37.2,13.1,36.8,13.6,36.6,13.9z M47.7,15.2c-2.1-1-3.2-2.9-3.7-4.7c-0.5,1.6-1.5,3.4-3.4,4.7
		c-0.2-0.3-0.6-0.6-0.9-0.9c3.7-2.1,3.6-6.3,3.7-7.5l1.5,0.1c0,0.1-0.1,0.2-0.2,0.2c0,0.1,0,0.3,0,0.5c0.1,1.5,0.7,5.1,4,6.7
		C48.2,14.5,47.9,14.9,47.7,15.2z M59.5,15H56v0.4h-1v-3.5c-0.1,0.1-0.3,0.3-0.4,0.4c-0.1-0.2-0.3-0.6-0.4-0.9v2.9h-1.7V15h-0.9
		v-2.5c-0.1,0.2-0.2,0.4-0.4,0.5c-0.1-0.3-0.4-0.8-0.5-1c0.6-0.8,1-2.3,1.2-3.9h-0.9v-1h3.4v0.5h1.9c0.1-0.4,0.2-0.7,0.3-1.1
		l1.3,0.3c0,0.1-0.1,0.1-0.2,0.1c-0.1,0.2-0.1,0.5-0.2,0.7h2.2v1.8h-1V9.3c0,0-0.1,0-0.1,0c-0.1,0.2-0.2,0.4-0.3,0.6h1.2v0.9h-1.5
		v0.5H59v0.8h-1.2v0.5H59v0.8h-1.2V14h1.6V15z M61.8,8.1h3.4V9h-3.4V8.1z M62.2,10.3V9.4h2.7v0.8H62.2z M64.9,10.7v0.8h-2.7v-0.8
		H64.9z M65.7,14.8L65,14.3v0.5h-1.8v0.4h-0.9V12H65v2.3c0.3-0.5,0.5-1.2,0.6-1.9l0.9,0.2C66.4,13.4,66.2,14.3,65.7,14.8z
		 M68.3,15.2h-0.7c-0.8,0-1-0.3-1-1.2V12l1.3,0.1c0,0.1-0.1,0.1-0.2,0.2v1.7c0,0.3,0,0.3,0.2,0.3h0.4c0.1,0,0.2-0.1,0.2-0.9
		c0.2,0.2,0.6,0.3,0.9,0.4C69.2,14.9,68.9,15.2,68.3,15.2z M69.7,14.9c-0.1-0.6-0.5-1.6-0.9-2.3l0.9-0.4c0.5,0.7,0.9,1.6,1,2.3
		L69.7,14.9z M73.4,9.2c0.6,0.2,1.3,0.6,1.7,0.9L74.5,11c-0.4-0.3-1.1-0.7-1.7-1L73.4,9.2z M74.2,15.2l-1.1-0.8
		c0.5-0.7,1.1-1.9,1.7-3l0.8,0.7c-0.5,1-1,2-1.4,2.7c0,0.1,0.1,0.1,0.1,0.2S74.2,15.2,74.2,15.2z M81.1,11.2l-0.2,0
		c0,0-0.1,0.1-0.2,0.1v4h-1.1v-1.5h-2.5c-0.2,0.5-0.5,1.1-1.1,1.5c-0.2-0.2-0.6-0.5-0.9-0.6c1-0.8,1.2-1.9,1.2-2.7v-0.9
		c-0.2,0-0.4,0.1-0.6,0.1c-0.1-0.3-0.3-0.7-0.5-0.9c0.8-0.1,1.6-0.3,2.3-0.6c-0.4-0.3-0.8-0.7-1.1-1.2l0.3-0.1h-1v-1h2.2V6.6
		l1.4,0.1c0,0.1-0.1,0.1-0.2,0.2v0.6h2.5v1h-1.2l0.4,0.1c0,0.1-0.1,0.1-0.2,0.1c-0.3,0.4-0.6,0.7-1,1.1c0.7,0.2,1.4,0.4,2.2,0.5
		C81.5,10.5,81.2,10.9,81.1,11.2z M143,17.6c-3.4,0-6.3-2.3-6.3-4.9c0-0.2,0.1-0.3,0.3-0.3c2.3,0,4.3,1,5.4,2.5v-1.1
		c0-0.3,0.3-0.6,0.6-0.6c0.3,0,0.6,0.3,0.6,0.6v1.1c1.1-1.5,3-2.4,5.4-2.4c0.2,0,0.3,0.2,0.3,0.3C149.2,15.4,146.4,17.6,143,17.6z"
		/>
	<path class="st0" d="M77.3,12.9h2.3v-0.5h-2.2C77.4,12.5,77.4,12.7,77.3,12.9z"/>
	<path class="st0" d="M79.4,8.5h-1.9c0.3,0.3,0.6,0.6,1,0.8C78.9,9,79.2,8.8,79.4,8.5z"/>
	<rect x="56" y="10.8" class="st0" width="0.8" height="0.5"/>
</g>
</svg>
