<svg xmlns="http://www.w3.org/2000/svg" viewBox="0 0 16.58 16.01"><defs><style>.cls-1{fill:#f50;}</style></defs><g id="レイヤー_2" data-name="レイヤー 2"><g id="let"><path class="cls-1" d="M8.29,0C3.75,0,0,3.1,0,6.91A6.14,6.14,0,0,0,2.94,12.4l.08.09a4,4,0,0,1-1.6,2.92l-.08.08a.31.31,0,0,0,.22.52h0a11.51,11.51,0,0,0,5.19-2.23l.18,0c.28,0,1.06.11,1.34.11h0c4.57,0,8.29-3.12,8.29-6.94S12.86,0,8.29,0Zm0,13.21c-.26,0-1.11-.06-1.27-.08a.17.17,0,0,0-.1,0l-.31,0a.22.22,0,0,0-.14.06,12.64,12.64,0,0,1-4,2,3.84,3.84,0,0,0,1.2-2.9s0,0,0-.08a1,1,0,0,0-.27-.33l0,0a5.51,5.51,0,0,1-2.7-5C.64,3.44,4.09.61,8.29.61S16,3.44,16,6.91,12.52,13.21,8.27,13.21Z"/><path class="cls-1" d="M4.77,5.91A1.23,1.23,0,1,0,6,7.14,1.23,1.23,0,0,0,4.77,5.91Zm0,1.84a.61.61,0,0,1-.61-.61.61.61,0,0,1,1.22,0A.61.61,0,0,1,4.77,7.75Z"/><path class="cls-1" d="M8.14,5.91A1.23,1.23,0,1,0,9.36,7.14,1.23,1.23,0,0,0,8.14,5.91Zm0,1.84a.62.62,0,0,1-.62-.61.62.62,0,1,1,.62.61Z"/><path class="cls-1" d="M11.5,5.91a1.23,1.23,0,1,0,1.23,1.23A1.23,1.23,0,0,0,11.5,5.91Zm0,1.84a.61.61,0,0,1-.61-.61.61.61,0,0,1,1.22,0A.61.61,0,0,1,11.5,7.75Z"/></g></g></svg>