<svg xmlns="http://www.w3.org/2000/svg" viewBox="0 0 16 16"><defs><style>.cls-1{fill:#606060;}</style></defs><g id="レイヤー_2" data-name="レイヤー 2"><g id="let"><path class="cls-1" d="M8,.91A7.09,7.09,0,1,1,.91,8,7.1,7.1,0,0,1,8,.91M8,0a8,8,0,1,0,8,8A8,8,0,0,0,8,0Zm5.85,6.51A.29.29,0,0,0,14,6.14a4.11,4.11,0,0,0-3.05-2.09.37.37,0,0,0-.39.34.4.4,0,0,0,.34.39A5.2,5.2,0,0,1,13.48,6.4a.3.3,0,0,0,.24.14Zm-11.57,0a.3.3,0,0,0,.24-.14A5.2,5.2,0,0,1,5.14,4.78a.4.4,0,0,0,.34-.39.37.37,0,0,0-.39-.34A4.11,4.11,0,0,0,2,6.14a.29.29,0,0,0,.11.37A.31.31,0,0,0,2.28,6.54ZM4.89,7.7a3.3,3.3,0,0,1-1.57-.23A1.55,1.55,0,0,0,6.4,7.2,3.29,3.29,0,0,1,4.89,7.7Zm6.22,0A3.29,3.29,0,0,1,9.6,7.2a1.55,1.55,0,0,0,3.08.27A3.3,3.3,0,0,1,11.11,7.7Z"/><path class="cls-1" d="M12.93,10.44h0l-.61-1.27-.61,1.27h0a.65.65,0,0,0-.06.29.68.68,0,1,0,1.35,0A.54.54,0,0,0,12.93,10.44Z"/><path class="cls-1" d="M7.91,12.47a3.13,3.13,0,0,0,2.53-1.19.17.17,0,1,0-.24-.23,3.71,3.71,0,0,1-4.58,0,.17.17,0,1,0-.24.23A3.13,3.13,0,0,0,7.91,12.47Z"/></g></g></svg>