<?xml version="1.0" encoding="utf-8"?>
<!-- Generator: Adobe Illustrator 27.1.1, SVG Export Plug-In . SVG Version: 6.00 Build 0)  -->
<svg version="1.1" id="レイヤー_1" xmlns="http://www.w3.org/2000/svg" xmlns:xlink="http://www.w3.org/1999/xlink" x="0px"
	 y="0px" viewBox="0 0 48 48" style="enable-background:new 0 0 48 48;" xml:space="preserve">
<style type="text/css">
	.st0{fill:#FBC2A1;}
</style>
<path class="st0" d="M24,45.2c-2.9,0-5.7-0.6-8.3-1.7c-2.6-1.1-4.8-2.6-6.8-4.6s-3.4-4.2-4.6-6.8s-1.6-5.4-1.6-8.3s0.6-5.6,1.7-8.2
	S7.1,10.8,9,8.9s4.2-3.4,6.8-4.6c2.6-1.1,5.3-1.7,8.3-1.7s5.7,0.6,8.3,1.7C34.9,5.5,37.1,7,39,8.9s3.4,4.2,4.6,6.8
	c1.1,2.6,1.7,5.3,1.7,8.2c0,3-0.6,5.7-1.7,8.3C42.5,34.8,41,37.1,39,39s-4.2,3.5-6.8,4.6C29.7,44.7,26.9,45.2,24,45.2z M24,40.5
	c4.6,0,8.5-1.6,11.7-4.8s4.8-7.2,4.8-11.8c0-1.8-0.3-3.6-0.8-5.2s-1.4-3.2-2.5-4.7L14.1,37.1c1.3,1.2,2.9,2.1,4.6,2.6
	S22.2,40.5,24,40.5z M10.9,33.8L34,10.7c-1.4-1.1-3-1.9-4.6-2.5c-1.7-0.5-3.4-0.8-5.2-0.8c-4.6,0-8.5,1.6-11.7,4.8
	s-4.8,7.1-4.8,11.7c0,1.8,0.3,3.6,0.9,5.3S9.8,32.5,10.9,33.8z"/>
</svg>
