<?xml version="1.0" encoding="utf-8"?>
<!-- Generator: Adobe Illustrator 25.2.3, SVG Export Plug-In . SVG Version: 6.00 Build 0)  -->
<svg version="1.1" id="レイヤー_1" xmlns="http://www.w3.org/2000/svg" xmlns:xlink="http://www.w3.org/1999/xlink" x="0px"
	 y="0px" width="22px" height="22px" viewBox="0 0 22 22" style="enable-background:new 0 0 22 22;" xml:space="preserve">
<style type="text/css">
	.st0{fill-rule:evenodd;clip-rule:evenodd;fill:#F6B99B;}
</style>
<path id="SPEECH_4_3_" class="st0" d="M20.952,12.984h-0.314l0,0h-0.384v1.803l0,0c0,0.075-0.007,0.148-0.021,0.218
	c-0.01,0.049-0.027,0.095-0.043,0.142c-0.007,0.02-0.01,0.042-0.018,0.061c-0.017,0.041-0.04,0.079-0.062,0.118
	c-0.012,0.022-0.021,0.045-0.035,0.066c-0.034,0.052-0.074,0.1-0.116,0.146c-0.004,0.004-0.007,0.01-0.012,0.014
	c-0.187,0.193-0.444,0.312-0.728,0.316c-0.004,0-0.009,0.001-0.013,0.001l0,0l0,0c-0.289,0-0.551-0.121-0.741-0.317l-2.487-2.568
	h-0.125l0,0H6.286c-0.579,0-1.048-0.484-1.048-1.082V1.082C5.238,0.484,5.707,0,6.286,0h14.667C21.531,0,22,0.484,22,1.082v10.82
	C22,12.499,21.531,12.984,20.952,12.984z M15.545,14.066l2.209,2.282l0.003-0.003c0.377,0.374,0.886,0.606,1.449,0.606v0.721
	c0,0.598-0.469,1.082-1.048,1.082v0H10.79v0h-2.41v0H7.333v0H7.069l-2.836,2.929C4.043,21.879,3.781,22,3.492,22l0,0l0,0
	c-0.004,0-0.009-0.001-0.013-0.001c-0.284-0.004-0.541-0.123-0.728-0.316c-0.004-0.004-0.007-0.01-0.012-0.014
	c-0.042-0.045-0.082-0.093-0.116-0.146c-0.014-0.021-0.023-0.045-0.035-0.066c-0.022-0.039-0.045-0.076-0.062-0.117
	c-0.008-0.019-0.012-0.041-0.018-0.061c-0.016-0.046-0.033-0.093-0.043-0.142c-0.014-0.07-0.021-0.143-0.021-0.218l0,0v-2.164H2.27
	v0H1.046C0.468,18.753,0,18.269,0,17.672V5.41v0c0-0.598,0.469-1.082,1.048-1.082H4.19v7.574c0,1.195,0.938,2.164,2.095,2.164
	H15.545z"/>
</svg>
